<svg xmlns="http://www.w3.org/2000/svg" xmlns:xlink="http://www.w3.org/1999/xlink" viewBox="0 0 750 517.54"><defs><style>.cls-1,.cls-38{fill:none;}.cls-2{isolation:isolate;}.cls-3{fill:#945915;}.cls-4{fill:#874c12;}.cls-5{fill:#ffcb24;}.cls-6{fill:#f9b800;}.cls-7{fill:#ffd357;}.cls-8{fill:#fbc006;}.cls-9{fill:#f7a500;}.cls-10{fill:#ffd96e;}.cls-11{fill:#c5a600;}.cls-12{fill:#ed8406;}.cls-13{fill:#205ce1;}.cls-14{fill:#0a2982;}.cls-15{fill:url(#linear-gradient);}.cls-16{fill:#347ee7;}.cls-17{fill:#206fce;}.cls-18{fill:#d0dcfe;}.cls-19{fill:#272c91;}.cls-20{clip-path:url(#clip-path);}.cls-21{fill:#fd9220;}.cls-22{fill:#9a98ed;}.cls-23,.cls-80,.cls-94,.cls-95{fill:#fff;}.cls-24{fill:url(#linear-gradient-2);}.cls-25{fill:#2875df;}.cls-26{fill:#75bcfc;}.cls-27{fill:#4594f4;}.cls-28{fill:#347ee8;}.cls-29{fill:#fcc106;}.cls-100,.cls-30{fill:#205ce2;}.cls-31{fill:url(#linear-gradient-3);}.cls-32,.cls-92{fill:#b4bbe1;}.cls-33{fill:#dae3f2;}.cls-34{fill:#ced2ef;}.cls-35{fill:#c5c8e8;}.cls-36{fill:#ff9906;}.cls-37{fill:#ef770a;}.cls-38{stroke:#fff;stroke-linecap:round;stroke-linejoin:round;stroke-width:3.16px;}.cls-39{fill:#266fc6;}.cls-40{fill:#4c96ed;}.cls-41{fill:url(#linear-gradient-4);}.cls-42{fill:#80b4ff;}.cls-43{fill:#4588ff;}.cls-44{fill:#f5f5f5;}.cls-45{fill:#e2e2e2;}.cls-46{fill:url(#linear-gradient-5);}.cls-47{fill:url(#linear-gradient-6);}.cls-48{fill:url(#linear-gradient-7);}.cls-49{fill:url(#linear-gradient-8);}.cls-50{fill:url(#linear-gradient-9);}.cls-51{fill:url(#linear-gradient-10);}.cls-52{fill:url(#linear-gradient-11);}.cls-53{fill:url(#linear-gradient-12);}.cls-54{fill:url(#linear-gradient-13);}.cls-55{fill:url(#linear-gradient-14);}.cls-56{fill:url(#linear-gradient-15);}.cls-57{fill:url(#linear-gradient-16);}.cls-58{fill:url(#linear-gradient-17);}.cls-59{fill:url(#linear-gradient-18);}.cls-60{fill:url(#linear-gradient-19);}.cls-61{fill:url(#linear-gradient-20);}.cls-62{fill:#6ce3ff;}.cls-63{fill:#898989;}.cls-63,.cls-98{opacity:0.5;}.cls-64{fill:#2a3049;}.cls-65{fill:#22293f;}.cls-66{fill:#3a3d51;}.cls-67{fill:#ffe1bd;}.cls-68{fill:#333647;}.cls-69{fill:#2eed89;}.cls-70{fill:#41f28d;}.cls-71{fill:#27e076;}.cls-72{fill:#f9a208;}.cls-73{fill:#eda38c;opacity:0.25;}.cls-73,.cls-92{mix-blend-mode:multiply;}.cls-74{fill:#4b9cb5;}.cls-75,.cls-76{fill:#48c8ef;}.cls-75{mix-blend-mode:luminosity;}.cls-77{fill:#85eeff;}.cls-78{fill:#b3e8f4;}.cls-79{fill:#5aafd1;}.cls-80{opacity:0.17;}.cls-81{fill:url(#linear-gradient-21);}.cls-82{fill:#3081e2;}.cls-83{fill:#595959;}.cls-84{fill:#242733;}.cls-85{fill:#2268bc;}.cls-86{fill:#f2ba88;}.cls-87{fill:#ffd1a4;}.cls-88{fill:#3a3a3a;}.cls-89{fill:#1c2235;}.cls-90{fill:#97a2ce;}.cls-91{fill:#8792b2;}.cls-92{opacity:0.55;}.cls-93{mix-blend-mode:screen;fill:url(#linear-gradient-22);}.cls-93,.cls-94{opacity:0.2;}.cls-95{opacity:0.6;}.cls-96{fill:#81c5e8;}.cls-97{fill:#cdd5f7;}.cls-99{fill:#2d2d2d;}.cls-100{opacity:0.75;}.cls-101{fill:#165bd6;}.cls-102{fill:#713e23;}.cls-103{fill:#474747;}.cls-104{fill:#442312;}.cls-105{fill:#ffd04d;}</style><linearGradient id="linear-gradient" x1="245.63" y1="217.73" x2="303.4" y2="217.73" gradientUnits="userSpaceOnUse"><stop offset="0" stop-color="#b4bbe1" stop-opacity="0.1"/><stop offset="0.63" stop-color="#b4bbe1" stop-opacity="0.24"/><stop offset="1" stop-color="#b4bbe1" stop-opacity="0.3"/></linearGradient><clipPath id="clip-path"><path class="cls-1" d="M274.52,142.16c-20.42,0-34.65-9.19-34.65-17.44S230.64-4,292.37.1c20.37,1.38,16.8,116.38,16.8,124.62S294.94,142.16,274.52,142.16Z"/></clipPath><linearGradient id="linear-gradient-2" x1="202.4" y1="260.65" x2="122.09" y2="307.02" xlink:href="#linear-gradient"/><linearGradient id="linear-gradient-3" x1="252.33" y1="269.6" x2="172.02" y2="315.97" xlink:href="#linear-gradient"/><linearGradient id="linear-gradient-4" x1="177.29" y1="368.09" x2="557.11" y2="368.09" xlink:href="#linear-gradient"/><linearGradient id="linear-gradient-5" x1="432.42" y1="317.96" x2="523.06" y2="317.96" gradientUnits="userSpaceOnUse"><stop offset="0" stop-color="#ced5ef"/><stop offset="0.37" stop-color="#d5ddf1"/><stop offset="0.87" stop-color="#dae3f2"/></linearGradient><linearGradient id="linear-gradient-6" x1="417.69" y1="326.42" x2="508.3" y2="326.42" xlink:href="#linear-gradient-5"/><linearGradient id="linear-gradient-7" x1="402.96" y1="334.87" x2="493.57" y2="334.87" xlink:href="#linear-gradient-5"/><linearGradient id="linear-gradient-8" x1="388.39" y1="343.25" x2="478.99" y2="343.25" xlink:href="#linear-gradient-5"/><linearGradient id="linear-gradient-9" x1="373.63" y1="351.72" x2="464.21" y2="351.72" xlink:href="#linear-gradient-5"/><linearGradient id="linear-gradient-10" x1="358.03" y1="360.68" x2="448.61" y2="360.68" xlink:href="#linear-gradient-5"/><linearGradient id="linear-gradient-11" x1="343.15" y1="369.24" x2="433.7" y2="369.24" xlink:href="#linear-gradient-5"/><linearGradient id="linear-gradient-12" x1="328.28" y1="377.76" x2="418.86" y2="377.76" xlink:href="#linear-gradient-5"/><linearGradient id="linear-gradient-13" x1="318.65" y1="271.26" x2="421.54" y2="271.26" xlink:href="#linear-gradient-5"/><linearGradient id="linear-gradient-14" x1="304.05" y1="279.65" x2="406.9" y2="279.65" xlink:href="#linear-gradient-5"/><linearGradient id="linear-gradient-15" x1="289.16" y1="288.18" x2="392.08" y2="288.18" xlink:href="#linear-gradient-5"/><linearGradient id="linear-gradient-16" x1="274.48" y1="296.63" x2="377.34" y2="296.63" xlink:href="#linear-gradient-5"/><linearGradient id="linear-gradient-17" x1="259.66" y1="305.13" x2="362.54" y2="305.13" xlink:href="#linear-gradient-5"/><linearGradient id="linear-gradient-18" x1="244.98" y1="313.58" x2="347.83" y2="313.58" xlink:href="#linear-gradient-5"/><linearGradient id="linear-gradient-19" x1="230.2" y1="322.05" x2="333.09" y2="322.05" xlink:href="#linear-gradient-5"/><linearGradient id="linear-gradient-20" x1="215.41" y1="330.55" x2="318.27" y2="330.55" xlink:href="#linear-gradient-5"/><linearGradient id="linear-gradient-21" x1="438.01" y1="447.87" x2="567.09" y2="447.87" xlink:href="#linear-gradient"/><linearGradient id="linear-gradient-22" x1="408.57" y1="316.17" x2="473.11" y2="316.17" xlink:href="#linear-gradient"/></defs><g class="cls-2"><g id="OBJECTS"><path class="cls-3" d="M490.34,255.89V291.2c0,4.3-3.59,8.17-9.43,11.06-6.24,3.07-15.08,5-24.86,5-18.94,0-34.27-7.19-34.27-16.05V255.89Z"/><path class="cls-4" d="M490.34,255.89V291.2c0,4.3-3.59,8.17-9.43,11.06V266.94l1.86-9.37,1.62-1.68Z"/><path class="cls-5" d="M490.34,255.89c0,4.3-3.59,8.16-9.43,11.05-6.24,3.07-15.08,5-24.86,5-18.94,0-34.27-7.19-34.27-16.05a8.18,8.18,0,0,1,.39-2.48L426,241.15l7.67,2.58a61.08,61.08,0,0,1,22.35-3.89,63.71,63.71,0,0,1,19.15,2.76,32.31,32.31,0,0,1,3.19,1.13l7.85-2.06,3.68,11.74A7.56,7.56,0,0,1,490.34,255.89Z"/><path class="cls-6" d="M490.34,255.89c0,4.3-3.59,8.16-9.43,11.05l-5.53-22.12s-.1-.93-.18-2.22a32.31,32.31,0,0,1,3.19,1.13l7.85-2.06,3.68,11.74A7.56,7.56,0,0,1,490.34,255.89Z"/><ellipse class="cls-7" cx="456.05" cy="243.73" rx="30.51" ry="14.28"/><path class="cls-8" d="M455.93,242.44h0a8.66,8.66,0,0,1-8.66-8.66V197.6h17.31v36.18A8.66,8.66,0,0,1,455.93,242.44Z"/><path class="cls-9" d="M464.58,197.59v36.19a8.65,8.65,0,0,1-7.94,8.62,8.47,8.47,0,0,0,2.85-6.38V199.83H447.27v-2.24Z"/><path class="cls-5" d="M507.43,110.05V169a51.39,51.39,0,0,1-51.38,51.39,48.8,48.8,0,0,1-8.44-.72A51.31,51.31,0,0,1,404.66,169V110.05Z"/><path class="cls-10" d="M447.61,219.64a50.83,50.83,0,0,1-24.37-11.11,51.07,51.07,0,0,1-11.35-32.21V117.4h11.93v58.92A51.23,51.23,0,0,0,447.61,219.64Z"/><path class="cls-6" d="M507.43,110.05V169a51.37,51.37,0,0,1-41,50.34A51.25,51.25,0,0,0,488,177.44V118.53H404.66v-8.48Z"/><ellipse class="cls-10" cx="456.05" cy="110.06" rx="51.39" ry="16.13"/><ellipse class="cls-11" cx="455.99" cy="110.06" rx="47.61" ry="14.28"/><path class="cls-5" d="M456.05,276.79c.43,0,.87,0,1.3,0v16.62c-.43,0-.87,0-1.3,0-13.24,0-24.73-3.5-30.43-8.65V268.14C431.32,273.29,442.81,276.79,456.05,276.79Z"/><path class="cls-12" d="M374.9,174.66c0,1.19-2.13,2.16-4.77,2.19s-4.8-.92-4.81-2.1,2.13-2.17,4.77-2.19S374.89,173.48,374.9,174.66Z"/><rect class="cls-12" x="365.23" y="154.99" width="9.58" height="19.71" transform="translate(-1.45 3.28) rotate(-0.51)"/><path class="cls-8" d="M374.72,155c0,1.19-2.12,2.16-4.77,2.19s-4.79-.92-4.8-2.1,2.12-2.17,4.77-2.19S374.71,153.77,374.72,155Z"/><path class="cls-13" d="M390.16,118.85l12,21.4c2.71,4.82,29.1,16,62.35-9.4,15.11-11.33,20.92-30.42,17.6-36.32L468,69.38Z"/><polygon class="cls-14" points="362.17 124.01 451.94 127.16 494.32 50.82 404.27 47.67 362.17 124.01"/><polygon class="cls-14" points="492.1 46.87 494.32 50.82 489.37 53.61 486.11 52.26 492.1 46.87"/><polygon class="cls-14" points="359.94 120.06 362.17 124.01 368.94 117.59 359.94 120.06"/><polygon class="cls-13" points="359.94 120.06 449.72 123.2 492.1 46.87 402.04 43.71 359.94 120.06"/><path class="cls-8" d="M370,155.81a.89.89,0,0,1-.89-.89V120a.9.9,0,0,1,.37-.72l55.1-39.17a.89.89,0,0,1,1,1.45l-54.72,38.91v34.44A.89.89,0,0,1,370,155.81Z"/><path class="cls-14" d="M430.13,81a5.15,5.15,0,1,1-4.59-5.65A5.14,5.14,0,0,1,430.13,81Z"/><path class="cls-15" d="M303.4,217.73c0,9.05-12.93,16.39-28.88,16.39s-28.89-7.34-28.89-16.39,12.94-16.39,28.89-16.39S303.4,208.68,303.4,217.73Z"/><path class="cls-16" d="M234.7,124.72l10.93,86.91h.12c1.16,8.45,13.58,15.1,28.77,15.1,16,0,28.88-7.33,28.88-16.39l10.93-85.62Z"/><path class="cls-17" d="M314.33,124.73l-10.94,85.62c0,6.64-6.93,12.34-16.92,14.92a10.62,10.62,0,0,0,2.4-6.54l10.92-85.62h-64l-1-8.38Z"/><ellipse class="cls-18" cx="274.52" cy="124.72" rx="39.81" ry="22.6"/><ellipse class="cls-19" cx="274.52" cy="124.72" rx="34.65" ry="17.43"/><ellipse class="cls-19" cx="274.52" cy="124.72" rx="34.65" ry="17.43"/><g class="cls-20"><rect class="cls-21" x="288.98" y="101.67" width="2.63" height="15.27" rx="0.5" transform="matrix(0.98, 0.19, -0.19, 0.98, 26.13, -53.28)"/><path class="cls-22" d="M285.66,182.2c-.23,1.19-2.33,1.37-4.71.4s-4.11-2.74-3.88-3.94,2.34-1.38,4.71-.4S285.89,181,285.66,182.2Z"/><polygon class="cls-8" points="294.92 84.52 277.07 178.66 285.66 182.19 303.51 88.06 294.92 84.52"/><path class="cls-13" d="M303.51,88.06c-.23,1.2-2.33,1.37-4.71.4s-4.11-2.74-3.88-3.94,2.34-1.38,4.71-.4S303.74,86.86,303.51,88.06Z"/><path class="cls-13" d="M281.67,64.12l-.07,3,0,1.22-.11,4.12v1.23l-.11,4.12,0,1.22-.09,4,0,1.22-.1,4,0,1.23L281,93.66l0,1.2L280.81,99l0,1.23-.09,4.05,0,1.2-.11,4.07,0,1.23-.1,4.07,0,1.2-.08,4.15,0,1.22-.1,4.13,0,1.2-.09,4.1,0,1.19-.11,4.15,0,1.2-.09,4.08,0,1.22-.11,4.12,0,1.2-.42,16.86c-.09,3.86-2.86,6.55-5.55,5.4l-8.95-3.84c-1.84-.82-3.06-3.19-3-5.83l3-98.81c.1-3.5,2.43-6.09,5-5.52l8.38,1.9C280.22,58.63,281.74,61.17,281.67,64.12Z"/><path class="cls-23" d="M281.6,67.12l0,1.22a.11.11,0,0,1-.07,0l-3.81-1a.68.68,0,0,1-.35-.72c.06-.31.28-.55.53-.45Z"/><path class="cls-23" d="M281.46,72.46v1.23a.1.1,0,0,1-.09,0l-3.81-1a.59.59,0,0,1-.35-.7c.06-.31.28-.55.51-.48Z"/><path class="cls-23" d="M281.34,77.81l0,1.22-.09,0-3.81-1a.6.6,0,0,1-.35-.69c.06-.34.27-.55.51-.48Z"/><path class="cls-23" d="M281.22,83l0,1.22a.08.08,0,0,1-.07,0l-3.8-1a.58.58,0,0,1-.35-.7c.05-.33.26-.55.51-.48Z"/><path class="cls-23" d="M281.08,88.31l0,1.23a.11.11,0,0,1-.07,0l-3.8-1c-.23,0-.39-.36-.35-.69s.28-.55.52-.48Z"/><path class="cls-23" d="M281,93.66l0,1.2h-.09l-3.8-1a.65.65,0,0,1-.35-.72c.05-.31.28-.55.52-.45Z"/><path class="cls-23" d="M280.81,99l0,1.23s0,0,0,0l-3.81-1c-.22,0-.38-.36-.35-.69s.28-.55.53-.48Z"/><path class="cls-23" d="M280.69,104.26l0,1.2h-.09l-3.8-1a.61.61,0,0,1-.36-.7c.06-.33.29-.57.51-.48Z"/><path class="cls-23" d="M280.55,109.53l0,1.23a.11.11,0,0,1-.07,0l-3.8-1c-.25,0-.4-.35-.35-.69s.26-.55.51-.48Z"/><path class="cls-23" d="M280.43,114.83l0,1.2h-.07l-3.8-1a.6.6,0,0,1-.35-.69c.05-.34.28-.58.51-.48Z"/><path class="cls-23" d="M280.31,120.18l0,1.22a.16.16,0,0,1-.09,0l-3.8-1a.61.61,0,0,1-.35-.69c.05-.32.26-.56.53-.48Z"/><path class="cls-23" d="M280.17,125.53l0,1.2h0l-.07,0-3.8-1c-.25,0-.4-.38-.35-.69s.26-.55.51-.48Z"/><path class="cls-23" d="M280,130.83l0,1.19h0a.12.12,0,0,1-.08,0l-3.81-1c-.24,0-.38-.36-.35-.69s.28-.55.51-.48Z"/><path class="cls-23" d="M279.9,136.17l0,1.2h-.05l-3.81-1a.65.65,0,0,1-.35-.69c0-.34.26-.55.53-.48Z"/><path class="cls-23" d="M279.78,141.45l0,1.22a.07.07,0,0,1-.06,0l-3.8-1a.58.58,0,0,1-.35-.7c0-.31.26-.55.51-.48Z"/><path class="cls-23" d="M279.64,146.79l0,1.2h-.08l-3.81-1a.63.63,0,0,1-.35-.7c0-.33.28-.55.51-.48Z"/></g><polygon class="cls-24" points="115.1 294.92 142.98 310.98 209.39 272.75 181.72 256.6 115.1 294.92"/><path class="cls-25" d="M184,142.64l-62,35.73,21,12.11,44.49-36.24v-9.58A2.32,2.32,0,0,0,184,142.64Z"/><polygon class="cls-26" points="121.93 181.7 183.62 146.16 205.83 158.97 144.15 194.5 121.93 181.7"/><path class="cls-27" d="M207.52,155.13a2.54,2.54,0,0,0-2.69-.26L143,190.48l-21-12.11,62-35.73a2.24,2.24,0,0,1,2-.13v0s-2.16-1.06-3-1.56a2.51,2.51,0,0,0-2.6-.19l-65.28,37.6V288l24.45-14.08v28.21l66.75-38.45a4,4,0,0,0,2-3.49l2.08-103.45S208.46,155.72,207.52,155.13Z"/><polygon class="cls-28" points="142.98 194.43 115.1 178.37 115.1 288.04 142.98 304.1 142.98 194.43"/><polygon class="cls-29" points="139.19 200.35 117.7 187.97 117.7 196.36 139.19 208.74 139.19 200.35"/><polygon class="cls-29" points="139.19 211.42 117.7 199.04 117.7 201.95 139.19 214.33 139.19 211.42"/><polygon class="cls-29" points="139.19 216.83 117.7 204.44 117.7 207.35 139.19 219.73 139.19 216.83"/><polygon class="cls-29" points="139.19 289.83 117.7 277.45 117.7 280.36 139.19 292.74 139.19 289.83"/><path class="cls-30" d="M208.26,156.83,143,194.43V304.1l66.75-38.45a4,4,0,0,0,2-3.49V158.85A2.33,2.33,0,0,0,208.26,156.83Z"/><polygon class="cls-31" points="165.03 303.87 192.91 319.93 259.31 281.7 231.65 265.55 165.03 303.87"/><path class="cls-32" d="M233.91,150.69l-62,35.74,21,12.11L237.4,162.3v-9.59A2.33,2.33,0,0,0,233.91,150.69Z"/><polygon class="cls-33" points="171.85 189.75 233.55 154.22 255.75 167.03 194.08 202.56 171.85 189.75"/><path class="cls-34" d="M257.44,163.18a2.52,2.52,0,0,0-2.68-.25l-61.85,35.61-21-12.11,62-35.74a2.28,2.28,0,0,1,2-.13h0s-2.16-1.06-3-1.56a2.52,2.52,0,0,0-2.61-.19L165,186.4V296.07L189.48,282v28.21l66.75-38.44a4,4,0,0,0,2-3.49l2.08-103.46S258.39,163.78,257.44,163.18Z"/><polygon class="cls-35" points="192.91 202.49 165.03 186.42 165.03 296.1 192.91 312.15 192.91 202.49"/><polygon class="cls-23" points="189.12 208.41 167.62 196.03 167.62 204.41 189.12 216.8 189.12 208.41"/><polygon class="cls-23" points="189.12 219.48 167.62 207.1 167.62 210 189.12 222.38 189.12 219.48"/><polygon class="cls-23" points="189.12 224.88 167.62 212.5 167.62 215.41 189.12 227.79 189.12 224.88"/><polygon class="cls-23" points="189.12 297.89 167.62 285.51 167.62 288.41 189.12 300.79 189.12 297.89"/><path class="cls-32" d="M258.19,164.89l-65.28,37.59V312.16l66.75-38.45a4,4,0,0,0,2-3.49V166.9A2.32,2.32,0,0,0,258.19,164.89Z"/><polygon class="cls-36" points="592.76 162.31 592.76 211.55 589.43 213.36 543.55 178.86 536.39 133.57 539.73 131.76 592.76 162.31"/><polygon class="cls-37" points="592.76 162.31 592.76 211.55 589.43 213.36 543.55 178.86 589.43 164.12 592.76 162.31"/><polygon class="cls-29" points="589.43 164.12 589.43 213.36 536.39 182.81 536.39 133.57 589.43 164.12"/><polygon class="cls-23" points="542.99 149.79 542.99 153.89 562.15 175.38 581.36 175.84 581.36 171.75 542.99 149.79"/><polygon class="cls-23" points="562.15 177.77 542.99 156.28 542.99 177.27 581.36 199.24 581.36 178.22 562.15 177.77"/><polygon class="cls-36" points="380.46 201.09 380.46 235.76 376.77 237.81 344.46 213.51 339.42 181.62 343.11 179.57 380.46 201.09"/><polygon class="cls-37" points="380.46 201.09 380.46 235.76 376.77 237.81 344.46 213.51 376.77 203.13 380.46 201.09"/><polygon class="cls-29" points="376.77 203.13 376.77 237.81 339.42 216.29 339.42 181.62 376.77 203.13"/><polyline class="cls-38" points="348.81 206 353.86 216.01 368.42 205.35"/><polygon class="cls-28" points="613.28 284.23 613.28 318.9 609.59 320.95 577.29 296.65 572.24 264.76 575.93 262.71 613.28 284.23"/><polygon class="cls-39" points="613.28 284.23 613.28 318.9 609.59 320.95 577.29 296.65 609.59 286.27 613.28 284.23"/><polygon class="cls-40" points="609.59 286.27 609.59 320.95 572.24 299.43 572.24 264.76 609.59 286.27"/><path class="cls-23" d="M590.07,282.42l-2.81,4.05a.63.63,0,0,1-.77.2l-6.1-2.71a.62.62,0,0,0-.77.91l4.87,7.6a.69.69,0,0,1,.09.48l-1.25,6.58a.67.67,0,0,0,.62.79l6.53.41a.68.68,0,0,1,.46.23l6,6.64a.62.62,0,0,0,1.1-.48l-1-6.72a.61.61,0,0,1,.38-.67l4.61-1.78a.63.63,0,0,0,.1-1.11l-7.34-5.39a.7.7,0,0,1-.23-.31l-3.27-8.53A.65.65,0,0,0,590.07,282.42Z"/><polygon class="cls-41" points="177.29 342.63 412.02 477.37 557.11 393.55 322.38 258.8 177.29 342.63"/><polygon class="cls-42" points="322.38 245.92 557.11 380.66 557.11 385.9 412.02 469.73 177.29 334.99 177.29 329.75 322.38 245.92"/><polygon class="cls-43" points="177.29 329.75 412.02 464.49 557.11 380.66 322.38 245.92 177.29 329.75"/><path class="cls-23" d="M324.17,231s42.77,5,114.42,68.29c0,0,61.92,11.86,110.19,60.68v17.89h0l-136.89,78.6-224.61-129v-17.9Z"/><path class="cls-44" d="M187.27,309.59s42.77,5.05,114.42,68.29c0,0,61.92,11.86,110.19,60.68v17.89l-224.61-129Z"/><polygon class="cls-45" points="548.78 359.96 411.88 438.56 411.88 456.45 548.78 377.85 548.78 359.96"/><path class="cls-44" d="M539.27,325.76,402.36,404.35a160.81,160.81,0,0,0-21-11.41A166.2,166.2,0,0,0,365,386.58c-34.91-11.61-63.35-8.7-63.35-8.7l136.9-78.6S489.9,294,539.27,325.76Z"/><path class="cls-46" d="M523.06,329.19l-3.25,1.87c-36.34-21.22-72.88-23.19-87.39-23l5.57-3.2C455.65,305.32,489.61,309.14,523.06,329.19Z"/><path class="cls-47" d="M508.3,337.67l-3.23,1.85c-36.33-21.22-72.86-23.19-87.38-23l5.55-3.2C440.89,313.78,474.85,317.6,508.3,337.67Z"/><path class="cls-48" d="M493.57,346.13,490.34,348c-36.29-21.21-72.85-23.2-87.38-23l5.59-3.21C426.21,322.23,460.15,326.08,493.57,346.13Z"/><path class="cls-49" d="M479,354.49l-3.25,1.87c-36.28-21.21-72.8-23.2-87.35-23l5.56-3.19C411.63,330.61,445.57,334.44,479,354.49Z"/><path class="cls-50" d="M464.21,363,461,364.84c-36.29-21.21-72.78-23.21-87.35-23l5.56-3.2C396.85,339.08,430.78,342.92,464.21,363Z"/><path class="cls-51" d="M448.61,371.93l-3.23,1.87c-36.28-21.22-72.82-23.22-87.35-23l5.58-3.21C381.31,348.05,415.22,351.9,448.61,371.93Z"/><path class="cls-52" d="M433.7,380.49l-3.23,1.87c-36.26-21.19-72.73-23.22-87.32-23l5.56-3.2C366.41,356.6,400.31,360.45,433.7,380.49Z"/><path class="cls-53" d="M418.86,389l-3.23,1.85c-36.28-21.19-72.8-23.19-87.35-23l5.58-3.22C351.57,365.13,385.47,369,418.86,389Z"/><path class="cls-54" d="M318.65,242c14.73,4.28,49.92,18.12,99.85,60.9l3-1.75c-48-41.34-82.22-56.22-98.85-61.47Z"/><path class="cls-55" d="M304.05,250.36c14.81,4.32,50,18.21,99.8,60.91l3-1.74c-47.92-41.29-82.11-56.2-98.8-61.5h0Z"/><path class="cls-56" d="M289.16,258.9c14.72,4.27,49.91,18.09,99.87,60.89l3.05-1.75c-48-41.35-82.26-56.22-98.87-61.46Z"/><path class="cls-57" d="M274.48,267.34c14.77,4.31,49.93,18.17,99.81,60.91l3-1.75c-48-41.32-82.16-56.21-98.82-61.48Z"/><path class="cls-58" d="M259.66,275.84c14.77,4.3,49.94,18.15,99.84,60.9l3-1.74c-48-41.33-82.17-56.21-98.83-61.48Z"/><path class="cls-59" d="M245,284.27c14.78,4.32,49.94,18.19,99.8,60.93l3.05-1.75C299.9,302.15,265.69,287.24,249,282Z"/><path class="cls-60" d="M230.2,292.76C245,297.05,280.14,310.9,330,353.67l3.06-1.76c-48-41.31-82.18-56.2-98.84-61.47Z"/><path class="cls-61" d="M215.41,301.25c14.79,4.32,50,18.18,99.81,60.92l3-1.75c-47.95-41.31-82.15-56.21-98.82-61.49Z"/><polygon class="cls-62" points="322.44 319.1 327.93 319.66 328.56 324.31 411.89 276.47 405.18 271.59 322.44 319.1"/><path class="cls-63" d="M272.43,324.12c-2.08,2.33-17.1,9.58-25.54,12.11L244,334.51l26.94-14.28S274.52,321.8,272.43,324.12Z"/><path class="cls-64" d="M244.75,223.31s-3.11,3.74-1.16,9.93c1.21,3.82,2.29,4.18,2.59,6.18s-2.59,5.79-.12,11.52c1.27,2.93,9-.48,9-.48l4-5.24-4-10.85Z"/><path class="cls-65" d="M254.93,242.37l.45,5.31s-9.58,3.73-9.79,2,2-2.77,2.42-4a3.47,3.47,0,0,0,0-2.2,10.72,10.72,0,0,1-1-5.17"/><path class="cls-66" d="M205.35,381.81a.87.87,0,0,1,.23.67c-.06.37-.56,1-1.63,1.55a14.21,14.21,0,0,0-3,1.74c-1.11.91-3.2,2.86-4.38,3.83a8.49,8.49,0,0,1-3.76,1.62,26.16,26.16,0,0,1-5.06.44,3.21,3.21,0,0,1-2.91-1.65,7.18,7.18,0,0,1-.09-1.78"/><polygon class="cls-67" points="197.53 370.52 197.53 377.04 197.53 379.88 203.03 379.88 204.82 370.52 197.53 370.52"/><path class="cls-66" d="M249.09,309.76s-5.79,15.88-17.48,20a55,55,0,0,1-5.52,1.62,52.49,52.49,0,0,1-15.75,1.53c1,11.73-4.2,33.73-5.5,38.91a2.06,2.06,0,0,1-1.58,1.52,3.1,3.1,0,0,1-.42.08,9.55,9.55,0,0,1-3.84-.23,2.28,2.28,0,0,1-1.69-2.11c-.32-8-1.76-45.73,2.55-48.72,10.67-7.41,36.8-16.22,42.13-18.22a2.42,2.42,0,0,0,1.37-1.33l1.75-4.25Z"/><path class="cls-68" d="M229.22,322.33l-3.13,9a52.49,52.49,0,0,1-15.75,1.53c1,11.73-4.2,33.73-5.5,38.91a2.06,2.06,0,0,1-1.58,1.52,3.1,3.1,0,0,1-.42.08h0c5-17.51,4.19-44.79,4.19-44.79C217.74,329.27,228.88,322.53,229.22,322.33Z"/><path class="cls-67" d="M234.69,375.2l2.5,5.31s7.52,6.79,5.85-1.58L240,369.27"/><path class="cls-66" d="M274.45,312.17c-.46,4.91-2,10.38-8.59,14.13a143.33,143.33,0,0,1-33,13.05c.54,1.3,1.15,2.77,1.82,4.44,2.62,6.51,5.66,23.23,6.75,28.72a3,3,0,0,1-.58,2.43,3.08,3.08,0,0,1-.39.42,6,6,0,0,1-3.74,1.68,2.65,2.65,0,0,1-2.33-1.51c-3-6-17.6-34.48-18.84-40.57a5.67,5.67,0,0,1,0-2.69,2.33,2.33,0,0,1,.31-.73c6.6-7,29-17,29-17l.36-16,24.55,2.73,3.82.43S274.83,308.08,274.45,312.17Z"/><path class="cls-68" d="M274.45,312.17c-.46,4.91-2,10.38-8.59,14.13a143.33,143.33,0,0,1-33,13.05c.54,1.3,1.15,2.77,1.82,4.44,2.62,6.51,5.66,23.23,6.75,28.72a3,3,0,0,1-.58,2.43c-1.54-5.39-4.95-16.58-6.12-22.75-1.36-7.14-7.26-15.65-7.26-15.65s7.21-1.93,17.49-5.33,21.37-8.51,24.61-14.64,0-15.15,0-15.15l.13-.16,3.82.43S274.83,308.08,274.45,312.17Z"/><path class="cls-8" d="M205.2,382.48c-.94.86-1.56,1-4,2.4s-5,4.75-7,5.37-6,1.38-8,.45a2.43,2.43,0,0,1-1.5-2.13,3.77,3.77,0,0,1,.41-1.85c.54-1.09,2.22-1.92,4.24-2.85s4.16-3.39,5.56-4.71a13.5,13.5,0,0,0,2.32-3.52c.25-.36,2.29.09,3,1.18.34.55.24.77.12,1a.54.54,0,0,0,0,.63.57.57,0,0,0,.46.24,3,3,0,0,0,3-2.69C205.7,376.81,206.13,381.63,205.2,382.48Z"/><path class="cls-66" d="M246.14,382.84a2.45,2.45,0,0,1,.68,1.31,8,8,0,0,1-1.92,3.41s-.22.35-.51.89a35.27,35.27,0,0,1-2.85,5c-1.21,1.53-4,2.44-5.23,2.79a6.89,6.89,0,0,1-4.71-.13,3,3,0,0,1-2.2-2.29l5.62-3.11"/><path class="cls-8" d="M246.51,383.63a7.68,7.68,0,0,1-2.07,3.72c-1.59,3.15-3.17,5.78-4,6.42a18,18,0,0,1-5,2.15c-2.52.74-6-.65-6.13-2.76v-.3c.17-2.27,3.33-4,4.64-4.63s2.07-5.26,2.34-7.12a1.2,1.2,0,0,1,1.19-1.1,3.78,3.78,0,0,1,2.15.72c.49.43.36.66.36,1.09a.49.49,0,0,0,.52.49.72.72,0,0,0,.37-.07c.45-.19,2.51-2,2.24-3.32a.83.83,0,0,1,.93.37C244.37,379.84,246.36,382.17,246.51,383.63Z"/><path class="cls-69" d="M252.53,261.75s-3.06,9.27-5.59,15.52c-.7,1.73-1.36,3.23-1.9,4.24-.17.33-.37.67-.59,1-4.19,6.85-15.17,16.89-19.43,20.94v0a2.43,2.43,0,0,1-1.36.62,2.5,2.5,0,0,1-2.39-1.13,1.74,1.74,0,0,1-.28-.76,1.66,1.66,0,0,1,.18-.94l0,0,0-.06c1.48-2.24,9.81-14.83,13.1-19.68,1.57-2.3,2.73-3.82,3.55-4.8.33-3.57,1.39-14.5,3-20.87,0-.09,0-.18.08-.27h0a14.43,14.43,0,0,1,2.92-5.68,10.38,10.38,0,0,1,1.55-1.51,2.2,2.2,0,0,1,.3-.19,13,13,0,0,1,3.89-1.33,5,5,0,0,1,2.56.82,5.92,5.92,0,0,1,2.48,4.43C254.94,254.07,253.76,257.88,252.53,261.75Z"/><path class="cls-70" d="M241,255.57c-.12.91-2,14.65-2,21.48,0,0-16.4,22.44-18,25.17a1.66,1.66,0,0,1,.18-.94l0,0,0-.06c1.48-2.24,9.81-14.83,13.1-19.68,1.57-2.3,2.73-3.82,3.55-4.8.33-3.57,1.39-14.5,3-20.87C240.93,255.75,241,255.66,241,255.57Z"/><path class="cls-71" d="M246.94,277.27c-.7,1.73-1.36,3.23-1.9,4.24-3.64,6.83-15.54,17.71-20,22v0a2.43,2.43,0,0,1-1.36.62c2.22-2.34,14.93-15.7,16.55-17.87,1.79-2.38,2.73-4.17,2.47-5.66s-.63-2-1.88-4.68c-1.85-3.95-1.69-5.62-1.69-5.62s4.81,1.54,5.23,1.58C244.55,271.88,245.81,274.65,246.94,277.27Z"/><path class="cls-71" d="M243.31,253.73s.3,4-1.06,6.77a26.44,26.44,0,0,0-3.15,9.32l5.65-6.64Z"/><path class="cls-8" d="M252.53,261.75s-3.06,9.27-5.59,15.52c-.7,1.73-1.36,3.23-1.9,4.24-.17.33-.37.67-.59,1-4.19,6.85-15.17,16.89-19.43,20.94v0a2.43,2.43,0,0,1-1.36.62,2.5,2.5,0,0,1-2.39-1.13,1.74,1.74,0,0,1-.28-.76,1.66,1.66,0,0,1,.18-.94l0,0,0-.06c1.48-2.24,9.81-14.83,13.1-19.68,1.57-2.3,2.73-3.82,3.55-4.8.33-3.57,1.39-14.5,3-20.87,0-.09,0-.18.08-.27h0a14.43,14.43,0,0,1,2.92-5.68,10.38,10.38,0,0,1,1.55-1.51,2.2,2.2,0,0,1,.3-.19,13,13,0,0,1,3.89-1.33,5,5,0,0,1,2.56.82,5.92,5.92,0,0,1,2.48,4.43C254.94,254.07,253.76,257.88,252.53,261.75Z"/><path class="cls-8" d="M273.57,299.89c.32.72.54,1.22-.1,1.8,0,0-2.19,2.74-9.06,3h-.29a14,14,0,0,1-1.83-.14c-5-.67-13.39-3.59-16.31-5.37l-.09-.05,0,0c-.36-.23-1.43-.94-1.3-1.38a22,22,0,0,0,.59-4,73.8,73.8,0,0,0-.69-11.2c0-.16-.07-.32-.1-.46s-.12-.44-.19-.66a38.69,38.69,0,0,0-3.53-6.94l0,0a10.78,10.78,0,0,1-1.48-3.46c-.52-4.77,4.21-8.07,4-12.23-.2-3.24-.71-6.55.81-8.85a5,5,0,0,1,1.55-1.51,2.2,2.2,0,0,1,.3-.19,13,13,0,0,1,3.89-1.33,31.64,31.64,0,0,1,13.75.66s13.94,5.72,15.35,10.89-3,14.81-4.88,19.64c-.22.54-.42,1.15-.61,1.79-1.48,5.06-2.25,12.72-1.4,15.85C271.85,295.69,273.08,298.79,273.57,299.89Z"/><path class="cls-72" d="M273.47,301.69s-2.19,2.74-9.06,3h-.29a14,14,0,0,1-1.83-.14,5.83,5.83,0,0,0,3.18-1.24c1.58-1.58.17-9.58-.23-11.91-.37-2.17.32-6.71-1.21-7.22l-.36-2.44s-1.25,1.54-4.1,1a46.5,46.5,0,0,1-6.21-1.7c-1.62-.47-3.48-.7-6.77-1.49-3.6-.88-4-1.69-4-1.69-.64-1.17-1.34-2.31-1.93-3.36l0,0a8.16,8.16,0,0,0,4.14,2.61c2.45.51,12.94,3.23,15.21,2.89s4.71-3.57,4.71-3.57l8.58,3.48c-1.48,5.06-2.25,12.72-1.4,15.85,0,0,1.23,3.1,1.72,4.2C273.89,300.61,274.11,301.11,273.47,301.69Z"/><path class="cls-67" d="M267.29,252.62c-.23,2-8,6.93-14,9,0,0-2.55-6.83-1.93-10.82a2.29,2.29,0,0,1,1.17-1.71,3.91,3.91,0,0,0,.87-.62,3.56,3.56,0,0,0,1.08-2.59c0-.49,0-1-.05-1.4-.11-1.25-.29-2.18-.29-2.18l11.18-6.14s-1.48,10.41-.21,12C265.15,248.16,267.5,250.7,267.29,252.62Z"/><path class="cls-73" d="M264.48,246.72,262,243.88l-.85-.5a8.24,8.24,0,0,0,2.31-2.94l-8.94,4c0,.44,0,.91.05,1.4a3.56,3.56,0,0,1-1.08,2.59,2.61,2.61,0,0,0,1.78-1.26c.45-.72,2.91-2.07,5-3.08a6,6,0,0,0,2.28,4.53,9.43,9.43,0,0,0,5.77,1.38Z"/><path class="cls-67" d="M245.41,224.06a35.42,35.42,0,0,0,.77,13.45c1.87,6.3,4.43,8.08,5.87,8.17s10-1.19,12.51-7.24a26.7,26.7,0,0,0,.85-16.51c-1.1-3.57-7.32-6.63-11.66-5.87S245.84,219.89,245.41,224.06Z"/><path class="cls-74" d="M260.71,317.29v1.53l-33.53-13.33-20.86,8.68.23-.42h-2.88V315a.4.4,0,0,0,.26.38l35.27,14a1,1,0,0,0,.75,0l22.19-9.23a.49.49,0,0,0,.3-.46v-1.48Z"/><path class="cls-75" d="M261.55,319.79c0,.21-.12.38-.26.38s-.26-.17-.26-.38.11-.38.26-.38S261.55,319.58,261.55,319.79Z"/><ellipse class="cls-75" cx="260.24" cy="320.2" rx="0.26" ry="0.38"/><path class="cls-75" d="M259.39,320.61c0,.21-.11.39-.26.39s-.26-.18-.26-.39.12-.38.26-.38S259.39,320.4,259.39,320.61Z"/><path class="cls-76" d="M227.18,304l-23.51,9.79L239.58,328l22.62-9.42a.39.39,0,0,0,0-.73Z"/><path class="cls-62" d="M227,305.71l-20.3,8.45a.19.19,0,0,0,0,.36L238,327a.2.2,0,0,0,.15,0l20.3-8.45a.19.19,0,0,0,0-.36l-31.26-12.43A.19.19,0,0,0,227,305.71Z"/><path class="cls-77" d="M235.71,308.44l-6.1,2.54a.11.11,0,0,0,0,.21l9.64,3.83a1,1,0,0,0,.73,0l6.07-2.53a.13.13,0,0,0,0-.24l-9.61-3.82A1,1,0,0,0,235.71,308.44Z"/><path class="cls-78" d="M238.89,328.61a.52.52,0,0,0,.3-.17l.06-.07.33-.35-9.73-24.34a1.19,1.19,0,0,0-.66-.66l-35-13.93a.23.23,0,0,0-.27.06l-.6.63,0,0,1.19.89,9.22,23.06,34.55,13.74-.13.09.77,1Z"/><path class="cls-79" d="M238.89,328.61l-9.58-24a1.86,1.86,0,0,0-1-1l-34.83-13.85a.17.17,0,0,0-.17,0l0,0a.12.12,0,0,0,0,.14l9.67,24.25a.66.66,0,0,0,.33.33l35.32,14.05h0l.08,0a.66.66,0,0,0,.2,0Z"/><path class="cls-80" d="M216.6,310.12c-.35,1.05-1.9,1.48-3.48.95s-2.56-1.79-2.21-2.84,1.91-1.47,3.48-1S217,309.08,216.6,310.12Z"/><path class="cls-67" d="M246.56,308.82l-1.34,1.66a4.57,4.57,0,0,1-2.85,1.28l-2,.44a.37.37,0,0,0-.17.05h0a.55.55,0,0,0-.17.14l-2.18,1.86h0a.76.76,0,0,0-.22.28s-1.15,1.92-1.41,2.57c-.06.16.36.34.7.11a18.59,18.59,0,0,0,1.64-2.07s-1,2.3-1.32,3.08c-.06.18.33.31.78,0a14.81,14.81,0,0,0,1.64-2.7s-.64,1.84-.77,2.43c0,.17.19.3.67.11s1.35-2.24,1.35-2.24l.67-.56L241,316s-.59,1.27-.73,1.65c-.08.22.43.25.9-.24s1.28-1.62,1.65-1.67A6.38,6.38,0,0,0,245,316c1.36-.11,2.33-2.5,2.33-2.5l3.36-3.36Z"/><path class="cls-69" d="M277.15,269.85s-5,15.1-7.49,19.76c-3.64,6.82-15.54,17.7-20,22h0a2.39,2.39,0,0,1-1.61.63,2.52,2.52,0,0,1-2.14-1.13,1.75,1.75,0,0,1-.26-.68h0a1.58,1.58,0,0,1,.17-1,0,0,0,0,0,0,0l0-.06c1.49-2.24,9.81-14.84,13.11-19.68a58.51,58.51,0,0,1,3.55-4.8,178.4,178.4,0,0,1,2.69-19.41v0c.11-.5.23-1,.34-1.42a13.54,13.54,0,0,1,5-7.79,5.57,5.57,0,0,1,6.34-.36,4.64,4.64,0,0,1,1,.85h0a6.45,6.45,0,0,1,1.49,3.57C279.55,262.17,278.38,266,277.15,269.85Z"/><path class="cls-71" d="M277.15,269.85s-5,15.1-7.49,19.76c-3.64,6.82-15.54,17.7-20,22h0a2.39,2.39,0,0,1-1.61.63c2.27-2.26,10.68-10.65,12.63-12.71,2.28-2.38,7-8.17,8.74-12.08s6.07-17.25,7.72-22.64c1.59-5.21.77-8,.71-8.14a6.45,6.45,0,0,1,1.49,3.57C279.55,262.17,278.38,266,277.15,269.85Z"/><path class="cls-70" d="M265.18,265.4c-.09.93-1.55,16.17-1.51,19.64,0,0-16.47,22.69-18.06,25.36a1.58,1.58,0,0,1,.17-1,0,0,0,0,0,0,0l0-.06c1.49-2.24,9.81-14.84,13.11-19.68a58.51,58.51,0,0,1,3.55-4.8A178.4,178.4,0,0,1,265.18,265.4Z"/><path class="cls-8" d="M277.15,269.85s-5,15.1-7.49,19.76c-3.64,6.82-15.54,17.7-20,22h0a2.39,2.39,0,0,1-1.61.63,2.52,2.52,0,0,1-2.14-1.13,1.75,1.75,0,0,1-.26-.68h0a1.58,1.58,0,0,1,.17-1,0,0,0,0,0,0,0l0-.06c1.49-2.24,9.81-14.84,13.11-19.68a58.51,58.51,0,0,1,3.55-4.8,178.4,178.4,0,0,1,2.69-19.41v0c.11-.5.23-1,.34-1.42a13.54,13.54,0,0,1,5-7.79,5.57,5.57,0,0,1,6.34-.36,4.64,4.64,0,0,1,1,.85h0a6.45,6.45,0,0,1,1.49,3.57C279.55,262.17,278.38,266,277.15,269.85Z"/><path class="cls-64" d="M270.68,251.11c-2.21-1.2-4.76-1-7.07-2.54h0a5.48,5.48,0,0,1-.49-.35,4.63,4.63,0,0,1-.49-.41c-2.92-2.69-1.47-8.88-1.47-12v-.2c-.08-4.42.12-7.74-5.44-6.55a15.31,15.31,0,0,1-6.35,0,5.6,5.6,0,0,1-4-8c.08-.14.16-.29.26-.44,3.81-6.09,12.46-5.38,17.06-2.63,3.88,2.33,5.31,5.59,5.23,11.48-.07,5,1.88,4.8,2.78,9.32.07.33.13.68.18,1.06s.1.84.13,1.26A43.88,43.88,0,0,1,270.68,251.11Z"/><path class="cls-65" d="M270.68,251.11c-2.21-1.2-4.76-1-7.07-2.54h0a5.48,5.48,0,0,1-.49-.35,4.63,4.63,0,0,1-.49-.41c-2.92-2.69-1.47-8.88-1.47-12l2.53-1.64a11.16,11.16,0,0,1,0,3.2c-.28,1.51-.77,1.58-1.28,3.31s-.33,5,1.4,6.24,4.43,1,5.23,1.43c0,0,1.8-3.47,1.65-9.54.07.33.13.68.18,1.06s.1.84.13,1.26A43.88,43.88,0,0,1,270.68,251.11Z"/><path class="cls-67" d="M260.46,233.4a2.5,2.5,0,0,1,2.26-1.23c1.38.22,1.22,2.27.82,4a2.6,2.6,0,0,1-2.82,2"/><path class="cls-72" d="M205.2,382.48c-.94.86-1.56,1-4,2.4s-5,4.75-7,5.37-6,1.38-8,.45a2.43,2.43,0,0,1-1.5-2.13c.89,1,1.68,1.53,4.58,1.43s5.8-1,7.58-3.25,2.94-3.32,4.88-4.08,2.83-1.74,2.57-2.64-1-1.47-2.37-1.14-1.58-.46-1.58-.46a.57.57,0,0,0,.46.24,3,3,0,0,0,3-2.69C205.7,376.81,206.13,381.63,205.2,382.48Z"/><path class="cls-72" d="M246.51,383.63a7.68,7.68,0,0,1-2.07,3.72c-1.59,3.15-3.17,5.78-4,6.42a18,18,0,0,1-5,2.15c-2.52.74-6-.65-6.13-2.76,2.77,2.44,8.87.14,9.9-.89s1.3-2.57,2.83-4.17,3.29-3.5,2.43-5c-.6-1.06-2.52-.84-3.06-.64a.87.87,0,0,1-.9-.16.72.72,0,0,0,.37-.07c.45-.19,2.51-2,2.24-3.32a.83.83,0,0,1,.93.37C244.37,379.84,246.36,382.17,246.51,383.63Z"/><path class="cls-81" d="M558.6,420.72,447.27,485l-9.26-5.3,111.33-64.27,17.36-4.6a.31.31,0,0,1,.31.51Z"/><path class="cls-32" d="M549.52,404.86l15-3.57a.55.55,0,0,1,.53.91l-10.21,11.23Z"/><path class="cls-43" d="M565.08,402.19l-4,4.41a5.57,5.57,0,0,0-.54-1.88,6.32,6.32,0,0,0-1-1.51,4.76,4.76,0,0,0-.62-.57l5.66-1.34A.54.54,0,0,1,565.08,402.19Z"/><path class="cls-43" d="M445.13,465.78l1.43,2.51,3.66,6.45,103.51-60.42h0a3.25,3.25,0,0,0,.62-.39,3.66,3.66,0,0,0,1.18-1.63,5.7,5.7,0,0,0-.3-4.44,6.07,6.07,0,0,0-1-1.52h0a4.65,4.65,0,0,0-3.85-1.68,3.35,3.35,0,0,0-1.11.31l-.18.09-.23.15a.26.26,0,0,0-.09.05s0,0-.06.05Z"/><path class="cls-42" d="M445.13,465.78l1.43,2.51,3.59-1.08,104.09-60.86h0a4.65,4.65,0,0,0-3.85-1.68,3.35,3.35,0,0,0-1.11.31l-.18.09-.23.15a.26.26,0,0,0-.09.05s0,0-.06.05Z"/><path class="cls-82" d="M443.63,472.24c1.23,2.58,3.9,3.87,6,2.89h0a3.25,3.25,0,0,0,.62-.39,3.64,3.64,0,0,0,1.18-1.64,5.66,5.66,0,0,0-.29-4.44,5.14,5.14,0,0,0-4.87-3.19,3.41,3.41,0,0,0-1.11.31l-.18.09-.23.15-.08.05C443,467.26,442.5,469.88,443.63,472.24Z"/><path class="cls-83" d="M519.6,486.92c-2.77,1.69-4,1-7.35,2.26s-9.75,5.25-12.43,5.54-6-1.17-7-3.46,1.71-4,4.67-5.56,9.95-6.7,9.95-6.7l9.65-.91c-.59.61-1,1.08-1,1.08l-.93,5.16,4.48.91A1.31,1.31,0,0,1,519.6,486.92Z"/><path class="cls-28" d="M507.46,478.09a118.42,118.42,0,0,1-9.95,6.69c-3,1.53-5.62,3.28-4.67,5.57s4.3,3.75,7,3.46,9.08-4.3,12.42-5.54,4.59-.57,7.36-2.25c1-.62,1.41-5.37-.6-9"/><path class="cls-83" d="M551.31,453.62a1.06,1.06,0,0,1-.08.43c-.47,1.16-1.24,1.81-3.62,3.24s-4.05,5.3-6.06,7.11-4.55,3.49-6.94,3.59-5.35-1.53-5.63-3.35.86-2.38,2-3.15a44.8,44.8,0,0,0,5.35-4.87c.67-.86,2.2-3.44,2.2-3.44l8-6.6a8.83,8.83,0,0,1,2.82,2.34,1.59,1.59,0,0,0-.75,0,20.94,20.94,0,0,0-.9,2.14,5.36,5.36,0,0,0,.84,1.1c.22.07,2,.19,2,.19A2.14,2.14,0,0,1,551.31,453.62Z"/><path class="cls-28" d="M538.22,452.46s-1.53,2.58-2.2,3.44a44.85,44.85,0,0,1-5.35,4.88c-1.14.76-2.29,1.33-2,3.15s3.24,3.44,5.63,3.34,5-1.77,7-3.58,3.65-5.68,6-7.12,3.15-2.08,3.63-3.24-1-5.55-4.68-7.46"/><path class="cls-66" d="M547.12,445.61c-2,7.44-9.94,7.06-9.94,7.06s-6.74-7.07-13.73-15.24a153.27,153.27,0,0,1-12.92-16.73,33.22,33.22,0,0,1-1.64-2.93,28.28,28.28,0,0,1-1.64-4.95c-3.66-14.62-4.85-45.76-4.85-45.76l20.83,10.32L523,410.12a63.43,63.43,0,0,1,4.44,4.68,58.26,58.26,0,0,1,4.63,6.05C536.1,426.9,547.12,445.61,547.12,445.61Z"/><path class="cls-84" d="M547.12,445.61c-2,7.44-9.94,7.06-9.94,7.06s-6.74-7.07-13.73-15.24L524.67,424l2-9.17h.78a58.26,58.26,0,0,1,4.63,6.05C536.1,426.9,547.12,445.61,547.12,445.61Z"/><path class="cls-68" d="M518.42,387.39s-2.9,14.76-3.33,14.85-3.18,12.41-4.56,18.46a33.22,33.22,0,0,1-1.64-2.93,28.28,28.28,0,0,1-1.64-4.95c1.32-10.05,5.41-32.31,5.41-32.31h3.75Z"/><path class="cls-66" d="M540.82,381.73c-.91,4.52-7,21-11.51,33.15a87.82,87.82,0,0,0-5.11,23.85c-1,14.26-3.16,35.76-3.88,39.93a10.8,10.8,0,0,1-1.9,1.13,9.77,9.77,0,0,1-11.67-2.08s-.15-45.68.05-53.7,7.83-40.71,7.83-40.71-11.85-3.82-12.23-16.24l32.79,4.25,5.63.72S542.15,375,540.82,381.73Z"/><path class="cls-68" d="M540.82,381.73c-.91,4.52-7,21-11.51,33.15a87.82,87.82,0,0,0-5.11,23.85c-1,14.26-3.16,35.76-3.88,39.93a10.8,10.8,0,0,1-1.9,1.13c.75-11.21,3.05-46,3.49-52.5.5-7.75,5.85-20.46,9.09-31.73a78.68,78.68,0,0,0,2.67-22.74l1.52-1.51,5.63.72S542.15,375,540.82,381.73Z"/><path class="cls-85" d="M542.53,372.1a14.1,14.1,0,0,1,.37,1.82.89.89,0,0,1-.37.87,25.57,25.57,0,0,1-5,2.39,26,26,0,0,1-10.73,1.14c-1.32-.12-14.21-3-21.92-7.84a5.78,5.78,0,0,1-2.57-5.83v0C502.54,363.08,542.53,372.1,542.53,372.1Z"/><path class="cls-28" d="M548.55,323.07c-1,4-2.18,8.05-3.41,12-.57,1.88-1.26,3.75-1.95,5.6-2.48,6.68-5.07,13.36-3.58,20.64.59,2.85,2.07,6.43,1.74,9.36-.21,1.74-.45,3.23-3.54,5.19a8.26,8.26,0,0,1-2,1l-.41.12-.2.06a14.75,14.75,0,0,1-2,.44,19.75,19.75,0,0,1-4.86.19,21.51,21.51,0,0,1-2.26-.3c-4.68-.88-13.43-3-21-7.7l-.06,0c-2.35-1.41-3.62-4.83-2.89-9.55.37-2.37.93-5.66,1.41-8.35a47.83,47.83,0,0,0,.7-9.56c-.05-1.43-.09-2.88-.13-4.3-1.37-8.86-6.36-26.83-3.93-31.68,1.55-3.06,4.34-8.27,4.34-8.27a64.34,64.34,0,0,1,9.24-1.9c.45,0,.88,0,1.33,0,2.56.5,5.24.92,7.89,1.48,1.71.36,3.4.77,5.07,1.28.49.15,1,.31,1.45.48s.79.28,1.18.45c2.42.94,4.12,1.72,5.46,2.38a38,38,0,0,1,4,2.31.87.87,0,0,1,.18.11,44,44,0,0,1,5.18,3.94c1.77,1.58,3.33,3.3,3.85,4.75a13.09,13.09,0,0,1,.42,1.84.78.78,0,0,1,0,.16C550,317.75,549.15,320.59,548.55,323.07Z"/><path class="cls-39" d="M549.75,315l-2.79.34c-.74-5.66-17.16-14.25-17.16-14.25l-.29-1.87c.4.15.79.28,1.18.45,2.42.94,4.12,1.72,5.46,2.38a38,38,0,0,1,4,2.31.87.87,0,0,1,.18.11,44,44,0,0,1,5.18,3.94c1.77,1.58,3.33,3.3,3.85,4.75A13.09,13.09,0,0,1,549.75,315Z"/><path class="cls-86" d="M529.39,290.16v7.11s-7.27,5.25-11.13,4.49c-1.66-.33-2.53-2.46-2.19-5.46l3.52-.71Z"/><path class="cls-23" d="M517.39,301.34l-4.13,4.86s-.16-5.83,2.61-8.81,2.8-.39,2.8-.39S516.12,299.94,517.39,301.34Z"/><path class="cls-87" d="M509.32,280.71A41.31,41.31,0,0,0,510,292.1c1.23,5.44,1.61,6.67,3.8,7.63s4.17,1.07,7.85-1.3a18.54,18.54,0,0,0,5.71-6.23s.52.35,1.84-1.14c2.06-2.32,2.45-3.49,2.45-6.65a22,22,0,0,0-3.24-11.25c-2.46-4.12-10-2.81-13.43-1.05S510,277.18,509.32,280.71Z"/><path class="cls-64" d="M506.34,281c3.76,6.66,13.15,2.28,13.15,2.28.7,2.89,2.72,3.16,3.7,3.69s1.17,3.34,1.17,3.34h.89a19.71,19.71,0,0,1,.48-4.23,2.48,2.48,0,0,1,4.38-.43c1.19,1.85-.17,3.91-1,5.44a7,7,0,0,0,.24,3.44,11.58,11.58,0,0,0,2.39-4.31,29.85,29.85,0,0,0,0-15.45,7.22,7.22,0,0,0-.77-1.87c-2.88-4.87-11.1-5.81-14.32-4.71-2.78.94-9.67,4.08-11,8.53A5.41,5.41,0,0,0,506.34,281Z"/><path class="cls-88" d="M506.06,413.78l.15,1Q506.14,414.2,506.06,413.78Z"/><path class="cls-23" d="M529.39,296.54a6.5,6.5,0,0,1,.79,1.48,14.31,14.31,0,0,1,.51,1.65,19.22,19.22,0,0,1-11.15,8.75l-.93-6.61S525.78,300.84,529.39,296.54Z"/><path class="cls-89" d="M506.34,281c3.76,6.66,13.15,2.28,13.15,2.28.7,2.89,2.72,3.16,3.7,3.69s1.17,3.34,1.17,3.34h.89a19.71,19.71,0,0,1,.48-4.23,2.48,2.48,0,0,1,4.38-.43c1.19,1.85-.17,3.91-1,5.44a7,7,0,0,0,.24,3.44,11.58,11.58,0,0,0,2.39-4.31,29.85,29.85,0,0,0,0-15.45,7.22,7.22,0,0,0-.77-1.87,46.3,46.3,0,0,1-10.87,7c-5.9,2.48-11,2.07-12.47.85a4.9,4.9,0,0,1-1.94-4.06A5.41,5.41,0,0,0,506.34,281Z"/><path class="cls-87" d="M538.49,382.05a28.69,28.69,0,0,1-.54,4.35,6.87,6.87,0,0,1-.71,1.27c-.42.71-2.28,4-2.55,6a16.81,16.81,0,0,0,1,5.55.56.56,0,0,0,.16.21.45.45,0,0,0,.3,0c1.17-.17,1.24-1.62,1.14-2.54,0-.51-.06-2.11.27-2.07,1.35.82,1.5,4.34,1.73,5.72.31,1.86-.75,5.59.18,5.55.36,0,3.23-1.25,3.83-2.47a8.12,8.12,0,0,0,1.77-4.23,18.85,18.85,0,0,0-.53-5.45c-.2-1.23-.5-2.52-.66-4.19-.1-1,.28-5.15.28-5.15Z"/><path class="cls-39" d="M539.61,361.35c.59,2.85,2.07,6.43,1.74,9.36-.21,1.74-.45,3.23-3.54,5.19a8.26,8.26,0,0,1-2,1l-.41.12c-.39-10.75,1-28.43,1-28.43-2.3-8-1.69-26.09-1.69-26.09s7.71,9,7.71,9.75c0,.43.43,4.83.81,8.5C540.71,347.39,538.12,354.07,539.61,361.35Z"/><path class="cls-28" d="M552.85,349.72l-7.8,36.38a3.57,3.57,0,0,1-1,.35c-1.23.29-3.55.39-6.93-1.23,0,0,.75-28.43,1.7-36.78,0,0-5.21-20.4-3.91-29.57.82-5.92,5.87-8,9.93-7.27a6.28,6.28,0,0,1,4.94,3.41S554.37,344.46,552.85,349.72Z"/><path class="cls-28" d="M499.09,335.89l0,0s5.15-10.37,6.49-14.48L504.33,298s-4.61.84-8.72,9.44-12.9,29.81-11.85,33.35A26.08,26.08,0,0,1,499,335.89Z"/><path class="cls-90" d="M527.59,330.39v27.83c0,.12,0,.56-.24.71a0,0,0,0,1,0,0l-.07.05-.42.28-.06-.11-20.53-12V317.59l-.45-.91.45-.26,20,11.67A2.7,2.7,0,0,1,527.59,330.39Z"/><path class="cls-32" d="M505.8,316.69l20,11.68a2.65,2.65,0,0,1,1.31,2.29v28a.69.69,0,0,1-1,.6l-20.3-11.84Z"/><polygon class="cls-90" points="499.48 320.32 505.8 316.69 506.33 317 506.09 324.18 499.48 320.32"/><polygon class="cls-91" points="506.33 317 500.07 320.67 500.07 325.65 506.33 321.14 506.33 317"/><path class="cls-23" d="M506.33,317.85l-5.51,3.25-.75,29.71,19.23,11.46,6.23-3.74a1.84,1.84,0,0,0,.89-1.57V330.64a1.9,1.9,0,0,0-.95-1.65Z"/><path class="cls-90" d="M520.83,334.29v27.83c0,.13,0,.56-.24.71l0,0-.07,0-.42.29-.06-.12-20.54-12V321.49l-.44-.9.44-.26,20,11.67A2.65,2.65,0,0,1,520.83,334.29Z"/><path class="cls-32" d="M499,320.59l20,11.68a2.65,2.65,0,0,1,1.32,2.29v28.05a.69.69,0,0,1-1,.6L499,351.37Z"/><path class="cls-87" d="M528.53,348a1.45,1.45,0,0,0-.8-1.12l-3.2,1.48c.23-.26.9-.78,1.16-1,.7-.7.33-1.4,0-1.47a19.39,19.39,0,0,0-4,1.71,4.56,4.56,0,0,0-1,1.06h0a2.08,2.08,0,0,1-1.6.7l-2.83-1-3,2.29L514,354s5.39,3,7,2.6c5.46-1.36,7-4.06,7-4.06A12.32,12.32,0,0,0,528.53,348Z"/><path class="cls-28" d="M514.8,354.87a3.12,3.12,0,0,1-.32-1c-.26-2,.73-5.43,3.5-5.31a219.41,219.41,0,0,0-18.89-12.65,24.86,24.86,0,0,0-9.23,1.16,17.49,17.49,0,0,0-6.1,3.76C484.81,344.34,514.8,354.87,514.8,354.87Z"/><path class="cls-39" d="M552.85,349.72l-7.8,36.38a3.57,3.57,0,0,1-1,.35c.49-2.61,6.49-34.26,6.76-39.62.29-5.6-6-35.23-6-35.23a6.28,6.28,0,0,1,4.94,3.41S554.37,344.46,552.85,349.72Z"/><path class="cls-92" d="M479,345.28v0l-.2-6.14v-.32l0,0c-.54-11.35-16.54-20-35.94-19.45s-35.06,10.32-34.72,21.75l.18,6.2c.13,4.36,2.51,8.3,6.49,11.51l-7.47,4.65a5.6,5.6,0,0,0-3-.57,5.4,5.4,0,0,0-1.5.41,1.49,1.49,0,0,0-.24.14l-.3.18c-.06,0-.08.06-.12.08s-.06.06-.1.08l-37,22.76a166.2,166.2,0,0,1,16.28,6.36L408.9,376a3.52,3.52,0,0,0,.83-.55,5,5,0,0,0,1.63-2.2,7.28,7.28,0,0,0,.37-3.09l9.89-6.16a4,4,0,0,0,.49-.3,2.49,2.49,0,0,0,.38-.42,52.51,52.51,0,0,0,21.73,3.75c19-.58,34.19-9.79,34.75-20.82l0,0Z"/><path class="cls-43" d="M404.14,323.72a12.94,12.94,0,0,0,.5,3.21c3,10.32,18.49,17.84,37,17.3s33.53-9,35.88-19.44c.24-1.06.31-9.84.31-9.84s-9.67-19.25-37.46-18.86c-16.81.23-36.19,21-36.19,21S404.08,321.64,404.14,323.72Zm5.85-.18a12.11,12.11,0,0,1,2.42-7.42c4.62-6.51,15.37-11.28,28-11.66s23.67,3.76,28.67,10a12.12,12.12,0,0,1,2.85,7.26c.29,10-13.34,13.93-30.45,14.43S410.29,333.57,410,323.54Z"/><path class="cls-93" d="M408.57,317.12c.3,10.24,15,18.11,32.81,17.59s32-9.25,31.73-19.49-15-18.12-32.82-17.59S408.27,306.88,408.57,317.12Z"/><path class="cls-94" d="M422.28,301.22c32.14.7,41.81,16.52,44.49,25.47,4.1-3.25,6.47-7.23,6.34-11.47-.31-10.24-14.9-17.75-32.73-17.23C433.84,298.18,427.31,299.15,422.28,301.22Z"/><path class="cls-95" d="M411.76,317.51c.26,9.07,13.27,16,29,15.57s28.34-8.18,28.08-17.25c0-.27,0-.52-.06-.79-.88,8.51-13,15.52-28,16-15.3.47-28-6.09-29-14.74A7.31,7.31,0,0,0,411.76,317.51Z"/><path class="cls-43" d="M407.4,310.73l8.35-8.68,24.11-6,24.42,4.53,8.86,8.18,2.3,5.1L472,315.12s-4.12-16.58-32-15.76S409,317,409,317l-3.56-1Z"/><path class="cls-96" d="M404.14,317.12a12.87,12.87,0,0,0,.5,3.21c3,10.32,18.49,17.84,37,17.3s33.53-9,35.88-19.44a12.55,12.55,0,0,0,.31-3.24c-.35-11.93-17.12-21.11-37.46-20.52S403.79,305.19,404.14,317.12ZM410,317a12.07,12.07,0,0,1,2.42-7.42c4.62-6.52,15.37-11.29,28-11.66s23.67,3.75,28.67,10a12.15,12.15,0,0,1,2.85,7.26c.29,10-13.34,18.57-30.45,19.08S410.29,327,410,317Z"/><path class="cls-42" d="M404.14,317.12a12.87,12.87,0,0,0,.5,3.21c3,10.32,18.49,17.84,37,17.3s33.53-9,35.88-19.44a12.55,12.55,0,0,0,.31-3.24c-.35-11.93-17.12-21.11-37.46-20.52S403.79,305.19,404.14,317.12ZM410,317a12.07,12.07,0,0,1,2.42-7.42c4.62-6.52,15.37-11.29,28-11.66s23.67,3.75,28.67,10a12.15,12.15,0,0,1,2.85,7.26c.29,10-13.34,18.57-30.45,19.08S410.29,327,410,317Z"/><path class="cls-97" d="M399.72,342.66l.71,1h0l3.15,4.68.81,1.2,13.84-8.64h0a2.57,2.57,0,0,0,.51-.31,3,3,0,0,0,.95-1.33,3.32,3.32,0,0,0,.22-.85h0a4.84,4.84,0,0,0-.46-2.74,4.7,4.7,0,0,0-2.37-2.35,3.18,3.18,0,0,0-1.57-.24,2.52,2.52,0,0,0-.89.25l-.15.08-.19.12-.06,0Z"/><path class="cls-23" d="M399.72,342.66l.71,1h0l16.65-10.34a3.18,3.18,0,0,0-1.57-.24,2.52,2.52,0,0,0-.89.25l-.15.08-.19.12-.06,0Z"/><path class="cls-32" d="M403.59,348.38l.81,1.2,13.84-8.64h0a2.57,2.57,0,0,0,.51-.31,3,3,0,0,0,.95-1.33,3.32,3.32,0,0,0,.22-.85Z"/><path class="cls-43" d="M355.67,366.83l2,3.54,5.17,9.11,42.12-26h0a3.89,3.89,0,0,0,.87-.55,5.22,5.22,0,0,0,1.67-2.31,8,8,0,0,0-.42-6.26,9.06,9.06,0,0,0-1.42-2.14h0a6.57,6.57,0,0,0-5.44-2.36,4.56,4.56,0,0,0-1.56.44,1.26,1.26,0,0,0-.26.13l-.32.2-.12.08-.09.07Z"/><path class="cls-42" d="M355.67,366.83l2,3.54,5.07-1.52,42.94-26.65v0h0a6.57,6.57,0,0,0-5.44-2.36,4.56,4.56,0,0,0-1.56.44,1.26,1.26,0,0,0-.26.13l-.32.2-.12.08-.09.07Z"/><path class="cls-82" d="M353.54,376c1.75,3.64,5.51,5.47,8.43,4.08h0a4.85,4.85,0,0,0,.88-.55,5.22,5.22,0,0,0,1.67-2.31,8.07,8.07,0,0,0-.42-6.27c-1.45-3-4.28-4.79-6.87-4.5a4.54,4.54,0,0,0-1.56.43l-.26.13-.33.21-.11.08C352.61,368.92,352,372.62,353.54,376Z"/><path class="cls-88" d="M309.4,474.21V476a3.66,3.66,0,0,1-.16,1.05v0c0,.08-.06.14-.08.22a1.16,1.16,0,0,0-.1.22,1.08,1.08,0,0,0-.12.22c-.1.12-.2.28-.31.43s-.1.16-.16.24a1.29,1.29,0,0,1-.18.16,3.58,3.58,0,0,0-.26.28,7.89,7.89,0,0,1-2,1.3c-2.77,1.39-5.69,2.4-7.73,3.61-.65.4-2.47,1.6-2.47,1.6a31.13,31.13,0,0,1-2.64,1.91A11,11,0,0,1,287,489c-2.49-.28-3.68-1.86-3.8-2.83l0-1.53,9.25-3.44Z"/><path class="cls-28" d="M293.21,473.78a67.42,67.42,0,0,0,7.46-.92c4.63-.79,7.82-1,8.42.42s.71,2.9-3.42,5.73-7.33,3.12-10.64,5.79a11.6,11.6,0,0,1-7.12,2.61c-2.47.17-4.13-.78-4.67-1.78-1.25-2.34,0-6.76,0-6.76Z"/><path class="cls-88" d="M326.12,485.34V487a2.07,2.07,0,0,1-1.09,1.84,27.69,27.69,0,0,1-9.59,2.85c-4.64.58-6.2.76-6.2.76s-2,.15-3.47.33-3.86.12-4.93-.79c-.26-.24-.44-.42-.59-.57a.06.06,0,0,0,0,0l0-.06a1.42,1.42,0,0,1-.2-.28,2.73,2.73,0,0,1-.22-.87v-.08l0-.69v-.32l3.41-.24h0l1.68-.12,1.57-.1,1.44-.1Z"/><path class="cls-28" d="M312.57,481.05A7.38,7.38,0,0,0,317,483c2.38,0,7-.06,8.22.78a1.93,1.93,0,0,1,.93,1.49,3,3,0,0,1-.63,1.84c-.9,1.31-6.92,3.28-11.44,3.64s-4.77.3-6.92.65-4.37.53-5.73-.14c-2.33-1.16-2.49-4.68-1.06-7S312.57,481.05,312.57,481.05Z"/><path class="cls-87" d="M287.84,312.47l-.37.86.57,2.84,9,4.56.54-.07,1.45-.18,2.28-.3v-3.13a4.1,4.1,0,0,1,2.35-3.82l.1-.05a4.42,4.42,0,0,0,1.54-1l.14-.14c1.74-1.85,3.3-6,2.85-15.11a17.43,17.43,0,0,0-1.17-5.74c-1.32-2.53-4.11-4.2-9.88-2.62-9.62,2.66-13.83,7-14.32,10.8S287.84,312.47,287.84,312.47Z"/><path class="cls-86" d="M301.36,320.18v-3.13a4.1,4.1,0,0,1,2.35-3.82c-.47.2-1.93.9-3.88,1.95-.78.41-.75,2.92-.75,5.3Z"/><polygon class="cls-87" points="308.93 332.06 322.71 323.95 321.81 331.14 313.7 339.85 308.93 332.06"/><path class="cls-14" d="M316.8,336.82l17.29,8.88a1,1,0,0,0,1.42-.59l8.4-26.89a2.11,2.11,0,0,0-1-2.49l-16.05-8.25a1.53,1.53,0,0,0-2.16,1l-8.44,27A1.12,1.12,0,0,0,316.8,336.82Z"/><path class="cls-13" d="M317.77,336.08l15.74,8.13a.75.75,0,0,0,1.07-.45l7.89-25.17c.32-1.18.26-1.7-.94-2.3l-15-7.74a.68.68,0,0,0-1,.43l-8.2,26.2A.76.76,0,0,0,317.77,336.08Z"/><g class="cls-98"><path class="cls-62" d="M340.71,317.82l-.32,1-13.87-7.15.28-.91s0,0,0-.06Z"/><polygon class="cls-62" points="339.7 320.99 339.4 321.94 325.53 314.81 325.83 313.86 339.7 320.99"/><polygon class="cls-62" points="338.7 324.14 338.41 325.11 324.52 317.98 324.84 317.01 338.7 324.14"/><polygon class="cls-62" points="337.71 327.31 337.42 328.28 323.53 321.13 323.85 320.18 337.71 327.31"/><polygon class="cls-62" points="336.72 330.5 336.43 331.45 322.54 324.3 322.84 323.35 336.72 330.5"/><polygon class="cls-62" points="335.73 333.65 335.44 334.6 321.55 327.49 321.85 326.52 335.73 333.65"/><polygon class="cls-62" points="334.74 336.84 334.45 337.79 320.56 330.64 320.86 329.69 334.74 336.84"/><polygon class="cls-62" points="333.75 339.99 333.45 340.96 319.57 333.81 319.87 332.83 333.75 339.99"/></g><path class="cls-87" d="M331.05,340.58l3.1,2.58.58.49s.71-3,2-4.1a8.16,8.16,0,0,1,2.4-1.08,1.85,1.85,0,0,0,1-.69c.61-.82,1.5-2.64,1-5.79a3.38,3.38,0,0,0-.4-1.3v0c-.39-.65-.86-.63-.86-.63s-2.09,1.48-2.7,1.93-1.13,1.09-1.62.55c-.27-.28,1.26-2.21,1.69-3.09s-.4-1.83-.76-1.49a21.3,21.3,0,0,0-3.36,5.32C332.26,335.52,331.05,340.58,331.05,340.58Z"/><path class="cls-86" d="M333.44,341l.71,2.21.58.49s.71-3,2-4.1a8.16,8.16,0,0,1,2.4-1.08,1.85,1.85,0,0,0,1-.69c.61-.82,1.5-2.64,1-5.79a3.38,3.38,0,0,0-.4-1.3v0s0,.54-.88,1.31a22,22,0,0,1-2.73,1.83A8.36,8.36,0,0,0,335,337C334.45,338.37,333.44,341,333.44,341Z"/><path class="cls-88" d="M278.56,398.55c2.15,11.72,3.69,26.25,3.69,26.25s-3.58,29.11.44,54.47c.18,1.2.59,3.73,2.13,4.72a5.79,5.79,0,0,0,5,0,1.55,1.55,0,0,1,.22-.12c6-3.29,5.37-7.55,6.24-10.34,0-11.28-1.19-39,1.2-45.13l2.15-24.6-.78-17.58H277.31v.06l-.11-.06S275.37,390.91,278.56,398.55Z"/><path class="cls-99" d="M285.14,399c2,6.66,4.63,24.05,5.17,28.3,0,0-2,33.49-.29,56.52,6-3.29,5.37-7.55,6.24-10.34,0-11.28-1.19-39,1.2-45.13l2.15-24.6-.78-17.58H284A32.53,32.53,0,0,0,285.14,399Z"/><path class="cls-88" d="M286.51,392a34.38,34.38,0,0,0,4.65,11.25c.41.62.78,1.26,1.14,1.89.07.3,1.12,4.24,2.43,9.52s2.88,11.91,4,17.55c-.63,7.08-2.37,31.85,1,53.31a3.91,3.91,0,0,0,2.83,3.2,7.05,7.05,0,0,0,2.36.25,6,6,0,0,0,2-.47c3.52-1.48,6.06-7.12,6.06-7.12s.09-35.64,1.94-45a39.58,39.58,0,0,0,.65-5.4c.34-5.73,1-16.18,1.16-20.55a178,178,0,0,0,.13-18.81l-17.62.22Z"/><path class="cls-99" d="M299.2,391.84c.08,1.05.14,1.75.14,1.75a44.22,44.22,0,0,0,2.42,11.1c2.25,6.66,4.47,22.45,4.71,28.37.24,5.45-2.66,31.41-1.58,55.9a6,6,0,0,0,2-.47c3.52-1.48,6.06-7.12,6.06-7.12s.09-35.64,1.94-45a39.58,39.58,0,0,0,.65-5.4c.34-5.73,1-16.18,1.16-20.55a178,178,0,0,0,.13-18.81Z"/><path class="cls-28" d="M275.12,342.28c2.84,8.63,4.44,22.81,2.72,28.73a107.29,107.29,0,0,0-2.72,14.31c1.61,4.44,16.65,14.06,25,14.8a12.74,12.74,0,0,0,3.08-.12c7.38-1.1,14.31-7.65,14.31-7.65s-1.6-24.3-2.59-39.84c-.67-10.33-2.19-16.77-3.16-19.92a24,24,0,0,0-.79-2.34c-.89-1.17-3.54-3.16-6.92-5.38l-.07,0c-2.26-1.5-4.84-3.1-7.43-4.63h0c-3.45-2-6.93-3.95-9.71-5.34-.33-.16-.64-.31-.94-.44a21.68,21.68,0,0,0-4.27-1.75c-4-.74-9.25,1.35-10.85,8.51S272.29,333.64,275.12,342.28Z"/><path class="cls-100" d="M304.12,370.9c.51,6.63-.5,23.18-.88,29.1,7.38-1.1,14.31-7.65,14.31-7.65s-1.6-24.3-2.59-39.84c-.67-10.33-2.19-16.77-3.16-19.92-.79-.92-1.31-1.5-1.31-1.5h-9.74s-5.06,1-3.23,12.57S303.52,362.76,304.12,370.9Z"/><path class="cls-101" d="M285.88,318.07c1.48,2,6.78,5,9.23,5.47a21.21,21.21,0,0,0,5.56.24,7.18,7.18,0,0,1,3.35,1.06l.07,0,0,0-1.45-2.21L301,321.6s-2.48-.9-3-1.15a6.53,6.53,0,0,0-1.38-.24h0c-1.47-.18-3.57-.32-3.9-.37a48.69,48.69,0,0,1-4.44-2.78c-.09-.06-.84-1.3-1.37-2.19-.33-.16-.64-.31-.94-.44A2.83,2.83,0,0,0,285.88,318.07Z"/><path class="cls-102" d="M280.44,299.68c.83,4.95,5,12.72,7.14,13.43a12.27,12.27,0,0,0,3.49.66,3.32,3.32,0,0,0,3.43-2.72,16.08,16.08,0,0,1,1.44-4.47c1.48-2.74,3.42-4.17,4.39-3.65s.88,2.26.88,2.26h.63s.06-.57.15-1.32.15-1.69.19-2.41a8.35,8.35,0,0,1,1.71-5.12,20.36,20.36,0,0,0,2.36-4.37,8,8,0,0,0,.6-3.91h0c-.4-3.81-2-5.36-3.42-6.44-4.79-3.51-14.8,3-18.5,6.11a12.75,12.75,0,0,0-4.15,5.89v0A12.7,12.7,0,0,0,280.44,299.68Z"/><path class="cls-23" d="M286.56,314.19l.92-.85a21.32,21.32,0,0,0,13.87,6.84,11.75,11.75,0,0,1,2.78,4.72l-1.26-.82a5.55,5.55,0,0,0-2.18-.85c-.5-.08-1.59-.13-1.59-.13-5-.07-9.87-3.52-12.44-5.65A2.17,2.17,0,0,1,286.56,314.19Z"/><path class="cls-103" d="M308.93,478.22a2.19,2.19,0,0,1-.31.44C308.74,478.5,308.85,478.35,308.93,478.22Z"/><path class="cls-103" d="M308.46,478.9a2,2,0,0,0,.16-.24,3.5,3.5,0,0,1-.32.4A1.21,1.21,0,0,0,308.46,478.9Z"/><path class="cls-87" d="M335.25,342v0c-.13.39-1.54,4.93-2.37,7.76s-3.49,12.64-5.65,17.35a1.22,1.22,0,0,1-.1.24q-.18.33-.3.6a1,1,0,0,1-.09.21s0,0,0,0a3.91,3.91,0,0,0-.24.52,5.65,5.65,0,0,1-4.2,3h-.22c-3,0-10.08-12.78-12.18-16.68.87-.53,1.92-1.21,3.05-2a25.07,25.07,0,0,0,6-6c1,2.35,3.21,5.84,4.16,8.08,0,0,.12-.3.3-.81a46.83,46.83,0,0,1,4.22-7.93,36.12,36.12,0,0,0,4-7.94c0,.14.1.54,1.17.67a2.11,2.11,0,0,1,1.09.78,13,13,0,0,1,1,1.4.94.94,0,0,1,.12.18A5.46,5.46,0,0,1,335.25,342Z"/><path class="cls-86" d="M335.25,342v0c-.13.39-1.54,4.93-2.37,7.76s-3.49,12.64-5.65,17.35a1.22,1.22,0,0,1-.1.24q-.18.33-.3.6a1,1,0,0,1-.09.21s0,0,0,0a3.91,3.91,0,0,0-.24.52,5.65,5.65,0,0,1-4.2,3h-.22c-3,0-10.08-12.78-12.18-16.68.87-.53,1.92-1.21,3.05-2,2.1,3.86,8.18,15,10.48,15,1.08,0,3.35-7.18,5-11.45s5.45-16.7,5.45-16.7a13,13,0,0,1,1,1.4.94.94,0,0,1,.12.18A5.46,5.46,0,0,1,335.25,342Z"/><path class="cls-28" d="M320.41,347.53c-2.57,3.84-7.26,7.07-9.74,8.62-.75.48-1.37.81-1.74,1-.52-.81-8.24-13-9.06-17.19a5.25,5.25,0,0,1-.19-.82c-1-5.61.71-7.62.93-7.88a.68.68,0,0,0,.13-.18c3.49-4.18,9.14-4.32,12.41,1.84C314.66,335.78,317.74,341.49,320.41,347.53Z"/><path class="cls-104" d="M280.44,299.68c.83,4.95,5,12.72,7.14,13.43a12.27,12.27,0,0,0,3.49.66,3.32,3.32,0,0,0,3.43-2.72,16.08,16.08,0,0,1,1.44-4.47c1.48-2.74,3.42-4.17,4.39-3.65s.88,2.26.88,2.26h.63s.06-.57.15-1.32.15-1.69.19-2.41a8.35,8.35,0,0,1,1.71-5.12,20.36,20.36,0,0,0,2.36-4.37,8,8,0,0,0,.6-3.91,21.87,21.87,0,0,1-15.6,12.83c-11.64,2.45-10.54-6.79-10.47-7.26A12.7,12.7,0,0,0,280.44,299.68Z"/><path class="cls-8" d="M311.25,387.29A8.66,8.66,0,0,1,303,391c-.72-.1-1.45-.24-2.2-.42a1,1,0,0,0-.22,0c-8.3-1.92-19.21-7.7-22.07-11.79-3.66-5.22-.06-33.63,5.59-44.47v0a6.23,6.23,0,0,1,6-3.52s11,4.14,14.52,8.43S314.2,381.85,311.25,387.29Z"/><path class="cls-105" d="M311.25,387.29A8.66,8.66,0,0,1,303,391c-.72-.1-1.45-.24-2.2-.42,2.59.69,4.57-2.3,4.57-4.38s-2.6-33.69-5.57-42.53c-.88-2.61-12.16-7.76-15.7-9.41a6.23,6.23,0,0,1,6-3.52s11,4.14,14.52,8.43S314.2,381.85,311.25,387.29Z"/><path class="cls-105" d="M294.52,332.91s2.32-4.41,5.07-6.19a8.38,8.38,0,0,1,5.44-1.34l4.1,2.93a8.58,8.58,0,0,0-4.95,1.83c-1.56,1.14-4.12,5.59-4.12,5.59Z"/><path class="cls-105" d="M316,366.67a13.24,13.24,0,0,1-5.45,8.26l.77,6.28s2.6-1.53,5.19-7Z"/></g></g></svg>