<?xml version="1.0" encoding="utf-8"?>
<!-- Generator: Adobe Illustrator 26.2.1, SVG Export Plug-In . SVG Version: 6.00 Build 0)  -->
<svg version="1.1" xmlns="http://www.w3.org/2000/svg" xmlns:xlink="http://www.w3.org/1999/xlink" x="0px" y="0px"
	 viewBox="0 0 750 500" style="enable-background:new 0 0 750 500;" xml:space="preserve">
<style type="text/css">
	.st0{display:none;}
	.st1{display:inline;fill:#E9FDFF;}
	.st2{opacity:0.37;fill:url(#SVGID_1_);}
	.st3{opacity:0.37;fill:url(#SVGID_00000137854916980494032550000006855549686342223531_);}
	.st4{fill:url(#SVGID_00000065791147506849773940000014741804766282926231_);}
	.st5{fill:url(#SVGID_00000155843399362052304920000002953861897008207290_);}
	.st6{fill:url(#SVGID_00000036221718065568519160000000254082005705433477_);}
	.st7{fill:url(#SVGID_00000165946876379871626870000017546997317690790842_);}
	.st8{fill:url(#SVGID_00000140724544161984191580000017248098266852036030_);}
	.st9{fill:#111023;}
	.st10{fill:url(#SVGID_00000080904190197288219460000001019954514496850319_);}
	.st11{fill:url(#SVGID_00000015326466445372862290000016092888122316255666_);}
	.st12{fill:url(#SVGID_00000037690206570218154670000003123753550495717274_);}
	.st13{fill:url(#SVGID_00000181796294351911623280000003717726188381195686_);}
	.st14{fill:url(#SVGID_00000123399867635735889860000016535144920206264451_);}
	.st15{fill:url(#SVGID_00000060721252819356555900000012842363416727419556_);}
	.st16{fill:url(#SVGID_00000030445472431375874650000013836746207557523125_);}
	.st17{fill:#5B2B89;}
	.st18{fill:url(#SVGID_00000127742274908274619310000013438004073235545780_);}
	.st19{fill:url(#SVGID_00000106844467072885681570000007897668348180090244_);}
	.st20{fill:url(#SVGID_00000105426033864397930780000018414772087784479419_);}
	.st21{fill:url(#SVGID_00000085248366338537376450000006301441580804151700_);}
	.st22{fill:url(#SVGID_00000018206824520380459580000015328844285680332442_);}
	.st23{opacity:0.38;fill:url(#SVGID_00000036968399756805382510000000421058602560518333_);}
	.st24{fill:url(#SVGID_00000113335872724517193080000017337644298273360309_);}
	.st25{fill:#F79244;}
	.st26{fill:#FFFFFF;}
	.st27{opacity:0.5;fill:url(#SVGID_00000026129920040428970480000013099889921240590512_);}
	.st28{fill:url(#SVGID_00000093862848486003177730000018266679027420858264_);}
	.st29{fill:url(#SVGID_00000109011456078213179930000016394648990815991470_);}
	.st30{fill:#E9FDFF;}
	.st31{fill:url(#SVGID_00000119076439491134781570000017815590104198827938_);}
	.st32{fill:url(#SVGID_00000117654976102751371950000001931674923872566407_);}
	.st33{fill:#2A2A2A;}
	.st34{fill:url(#SVGID_00000029038617920586181720000013797578470639874947_);}
</style>
<g id="BACKGROUND" class="st0">
	<rect id="XMLID_1_" class="st1" width="750" height="500"/>
</g>
<g id="OBJECTS">
	<g>
		<linearGradient id="SVGID_1_" gradientUnits="userSpaceOnUse" x1="387.9164" y1="387.4633" x2="404.0962" y2="143.1487">
			<stop  offset="0" style="stop-color:#31D1D6"/>
			<stop  offset="0.3733" style="stop-color:#32CED8"/>
			<stop  offset="0.6175" style="stop-color:#36C6DF"/>
			<stop  offset="0.824" style="stop-color:#3CB7EB"/>
			<stop  offset="1" style="stop-color:#45A3FA"/>
		</linearGradient>
		<path class="st2" d="M204.16,373.45h-51.48c-13.78-14.31-17.46-37.12-9.23-55.2c7.84-17.23,24.69-28.62,34.89-44.57
			c21.78-34.04,11.25-84.75,40.84-112.27c14.79-13.76,36.06-17.73,56.2-19.34c20.14-1.61,40.95-1.56,59.57-9.39
			c22.96-9.65,40.27-30.38,63.93-38.19c26.56-8.77,58.33,2.17,73.85,25.44c9.71,14.56,13.38,32.85,24.86,46.06
			c18.57,21.35,51.29,23.01,74.45,39.27c15.89,11.15,26.61,29.37,28.66,48.67c2.47,23.31-6.38,49.78,7.6,68.59
			c6.81,9.17,17.86,14.35,25.2,23.1c7.32,8.73,9.38,16.68,7.07,27.83H204.16z"/>
		
			<linearGradient id="SVGID_00000147916763251238264740000007760681324608803739_" gradientUnits="userSpaceOnUse" x1="401.0737" y1="387.4633" x2="417.2535" y2="143.1487">
			<stop  offset="0" style="stop-color:#31D1D6"/>
			<stop  offset="0.3733" style="stop-color:#32CED8"/>
			<stop  offset="0.6175" style="stop-color:#36C6DF"/>
			<stop  offset="0.824" style="stop-color:#3CB7EB"/>
			<stop  offset="1" style="stop-color:#45A3FA"/>
		</linearGradient>
		<path style="opacity:0.37;fill:url(#SVGID_00000147916763251238264740000007760681324608803739_);" d="M217.32,373.45h-51.48
			c-13.78-14.31-17.46-37.12-9.23-55.2c7.84-17.23,24.69-28.62,34.89-44.57c21.78-34.04,11.25-84.75,40.84-112.27
			c14.79-13.76,36.06-17.73,56.2-19.34s40.95-1.56,59.57-9.39c22.96-9.65,40.27-30.38,63.93-38.19
			c26.56-8.77,58.33,2.17,73.85,25.44c9.71,14.56,13.38,32.85,24.86,46.06c18.57,21.35,51.29,23.01,74.45,39.27
			c15.89,11.15,26.61,29.37,28.66,48.67c2.47,23.31-6.38,49.78,7.6,68.59c6.81,9.17,17.86,14.35,25.2,23.1
			c7.32,8.73,9.38,16.68,7.07,27.83H217.32z"/>
	</g>
	<g>
		
			<linearGradient id="SVGID_00000129910446543081805830000000587930170796761769_" gradientUnits="userSpaceOnUse" x1="218.2585" y1="300.5156" x2="331.3926" y2="300.5156">
			<stop  offset="0" style="stop-color:#31D1D6"/>
			<stop  offset="0.3733" style="stop-color:#32CED8"/>
			<stop  offset="0.6175" style="stop-color:#36C6DF"/>
			<stop  offset="0.824" style="stop-color:#3CB7EB"/>
			<stop  offset="1" style="stop-color:#45A3FA"/>
		</linearGradient>
		<path style="fill:url(#SVGID_00000129910446543081805830000000587930170796761769_);" d="M331.39,345.21h-16.06v28.23h-38.91
			v-28.23h-58.16v-28.93l60.66-88.69h36.41v88.19h16.06V345.21z M276.42,315.78v-16.96c0-3.19,0.12-7.5,0.35-12.92
			c0.23-5.42,0.41-8.26,0.55-8.53h-1.1c-2.26,5.12-4.82,9.91-7.68,14.37l-16.16,24.04H276.42z"/>
		
			<linearGradient id="SVGID_00000054241953446270412400000014256226952900828561_" gradientUnits="userSpaceOnUse" x1="265.2303" y1="383.0508" x2="264.1516" y2="328.0396">
			<stop  offset="0" style="stop-color:#F9E6D9"/>
			<stop  offset="0.121" style="stop-color:#FCF1EA"/>
			<stop  offset="0.2698" style="stop-color:#FEF9F6"/>
			<stop  offset="0.4751" style="stop-color:#FFFEFD"/>
			<stop  offset="1" style="stop-color:#FFFFFF"/>
		</linearGradient>
		<path style="fill:url(#SVGID_00000054241953446270412400000014256226952900828561_);" d="M320.77,345.22H304.7v28.23H265.8v-28.23
			h-58.16v-28.93l60.66-88.69h36.41v88.19h16.06V345.22z M265.8,315.79v-16.96c0-3.19,0.12-7.5,0.35-12.92
			c0.23-5.42,0.41-8.26,0.55-8.53h-1.1c-2.26,5.12-4.82,9.91-7.68,14.37l-16.16,24.04H265.8z"/>
	</g>
	<g>
		
			<linearGradient id="SVGID_00000114789337903422589610000016897568674955396737_" gradientUnits="userSpaceOnUse" x1="462.0378" y1="311.1027" x2="575.1755" y2="311.1027" gradientTransform="matrix(0.9818 -0.1899 0.1899 0.9818 -47.317 104.3219)">
			<stop  offset="0" style="stop-color:#31D1D6"/>
			<stop  offset="0.3733" style="stop-color:#32CED8"/>
			<stop  offset="0.6175" style="stop-color:#36C6DF"/>
			<stop  offset="0.824" style="stop-color:#3CB7EB"/>
			<stop  offset="1" style="stop-color:#45A3FA"/>
		</linearGradient>
		<path style="fill:url(#SVGID_00000114789337903422589610000016897568674955396737_);" d="M585.29,346.19l-5.59-28.9l-10.43,2.02
			l-5.34,1.03l-16.74-86.59l-35.76,6.92l-42.71,98.59l5.49,28.41l57.11-11.05l3.25,16.83h39.63l-4.68-24.21l5.34-1.03L585.29,346.19
			z M515.3,329.75l-13.17,2.54l9.4-22.18l1.9-4.49c1.96-4.92,3.56-10.11,4.81-15.57l1.08-0.2c-0.08,0.28,0.28,3.11,1.08,8.48
			c0.8,5.36,1.5,9.61,2.11,12.75l3.22,16.65L515.3,329.75z"/>
		
			<linearGradient id="SVGID_00000052823430603023726710000014080471471461026236_" gradientUnits="userSpaceOnUse" x1="517.233" y1="378.1096" x2="516.1544" y2="323.0983">
			<stop  offset="0" style="stop-color:#F9E6D9"/>
			<stop  offset="0.121" style="stop-color:#FCF1EA"/>
			<stop  offset="0.2698" style="stop-color:#FEF9F6"/>
			<stop  offset="0.4751" style="stop-color:#FFFEFD"/>
			<stop  offset="1" style="stop-color:#FFFFFF"/>
		</linearGradient>
		<path style="fill:url(#SVGID_00000052823430603023726710000014080471471461026236_);" d="M574.86,348.21l-5.59-28.89l-15.77,3.05
			l-16.75-86.59l-25.32,4.89L501,242.69l-42.71,98.6l5.49,28.4l10.43-2.02l46.68-9.02l2.86,14.8h39.63l-4.29-22.19l10.43-2.02
			L574.86,348.21z M511.53,310.11c0.19,1.09,0.38,2.08,0.55,2.99l3.22,16.65l-23.61,4.57L503,307.64c1.96-4.91,3.56-10.1,4.81-15.56
			l1.08-0.21c-0.08,0.29,0.28,3.12,1.08,8.48C510.54,304.17,511.06,307.43,511.53,310.11z"/>
	</g>
	<g id="XMLID_2_">
		<g>
			
				<linearGradient id="SVGID_00000140722697367098284570000017961158823757311661_" gradientUnits="userSpaceOnUse" x1="290.2558" y1="231.047" x2="322.2558" y2="222.7774">
				<stop  offset="0" style="stop-color:#31D1D6"/>
				<stop  offset="0.3733" style="stop-color:#32CED8"/>
				<stop  offset="0.6175" style="stop-color:#36C6DF"/>
				<stop  offset="0.824" style="stop-color:#3CB7EB"/>
				<stop  offset="1" style="stop-color:#45A3FA"/>
			</linearGradient>
			<path style="fill:url(#SVGID_00000140722697367098284570000017961158823757311661_);" d="M336.82,299.47l-23.75,0l-15.09-110.49
				c0,0-21.8-23.82-46.83-28.28l23.84-2.57l53.73,1.46L336.82,299.47z"/>
			<path class="st9" d="M243.07,238.73c0,0-13.5,19.76-7.51,36.72l25.11-36.72l-3.26-4.38L243.07,238.73z"/>
			<path class="st9" d="M313.07,299.47l-0.81,5.1c0,0-7.16,1-7.56,11.22h18.61l10.11-9.87l0.94-6.45H313.07z"/>
			
				<linearGradient id="SVGID_00000095313209315700047690000011272361707078772356_" gradientUnits="userSpaceOnUse" x1="226.7384" y1="200.6536" x2="297.9775" y2="200.6536">
				<stop  offset="0" style="stop-color:#31D1D6"/>
				<stop  offset="0.3733" style="stop-color:#32CED8"/>
				<stop  offset="0.6175" style="stop-color:#36C6DF"/>
				<stop  offset="0.824" style="stop-color:#3CB7EB"/>
				<stop  offset="1" style="stop-color:#45A3FA"/>
			</linearGradient>
			<path style="fill:url(#SVGID_00000095313209315700047690000011272361707078772356_);" d="M284.33,188.9l-29.77-1.11l4.84,45.59
				l-20.18,7.23l-11.63-56.3c-3.4-10.49,3.71-21.46,14.67-22.65l8.87-0.96h0.01c25.03,4.46,46.83,28.28,46.83,28.28L284.33,188.9z"
				/>
		</g>
		<g>
			
				<linearGradient id="SVGID_00000132803879897563956140000003139062529828827059_" gradientUnits="userSpaceOnUse" x1="177.1385" y1="58.9747" x2="229.5139" y2="58.9747">
				<stop  offset="0" style="stop-color:#51ADC6"/>
				<stop  offset="6.081700e-03" style="stop-color:#55AFC4"/>
				<stop  offset="0.0663" style="stop-color:#74BFB5"/>
				<stop  offset="0.1333" style="stop-color:#8FCDA7"/>
				<stop  offset="0.2102" style="stop-color:#A5D89D"/>
				<stop  offset="0.3001" style="stop-color:#B6E094"/>
				<stop  offset="0.4112" style="stop-color:#C1E78E"/>
				<stop  offset="0.5672" style="stop-color:#C8EA8B"/>
				<stop  offset="1" style="stop-color:#CAEB8A"/>
			</linearGradient>
			<path style="fill:url(#SVGID_00000132803879897563956140000003139062529828827059_);" d="M229.51,61.65v1.33l-1.61,0.21
				c-0.41-0.89-0.86-1.6-1.3-1.99c-2.15-1.86-3.65-3.32-5.19-2.43c-1.16,0.68-1.07,3.86-0.96,5.36l-4.39,0.56l-38.9,4.93l-0.02-0.07
				c2.52-0.6,4.48-5.12,4.48-10.62c0-5.43-1.9-9.9-4.37-10.6l52.27,5.9v1.05V61.65z"/>
			
				<linearGradient id="SVGID_00000073695684042586671560000003843145929367498415_" gradientUnits="userSpaceOnUse" x1="180.0508" y1="52.9203" x2="171.5755" y2="52.9203">
				<stop  offset="0" style="stop-color:#8AEBD6"/>
				<stop  offset="0.4615" style="stop-color:#89E9D7"/>
				<stop  offset="0.6276" style="stop-color:#84E2DA"/>
				<stop  offset="0.7461" style="stop-color:#7DD7DE"/>
				<stop  offset="0.8419" style="stop-color:#72C6E5"/>
				<stop  offset="0.9229" style="stop-color:#64B0EE"/>
				<stop  offset="0.9944" style="stop-color:#5395F9"/>
				<stop  offset="1" style="stop-color:#5193FA"/>
			</linearGradient>
			<path style="fill:url(#SVGID_00000073695684042586671560000003843145929367498415_);" d="M180.05,51.18
				c-0.11,0.16-0.21,0.32-0.3,0.5c-0.56,1.08-0.82,2.32-1.51,3.31c-0.5,0.74-1.24,1.31-2.06,1.63c-0.87,0.34-1.83,0.4-2.77,0.52
				c-0.62,0.08-1.26,0.21-1.83,0.47c0.3-5.19,2.34-9.23,4.86-9.37l0.81,0.09C178.33,48.63,179.3,49.66,180.05,51.18z"/>
			
				<linearGradient id="SVGID_00000142884957835209449220000007936701504685288382_" gradientUnits="userSpaceOnUse" x1="181.6015" y1="57.9919" x2="171.5304" y2="57.9919">
				<stop  offset="0" style="stop-color:#31D1D6"/>
				<stop  offset="0.3733" style="stop-color:#32CED8"/>
				<stop  offset="0.6175" style="stop-color:#36C6DF"/>
				<stop  offset="0.824" style="stop-color:#3CB7EB"/>
				<stop  offset="1" style="stop-color:#45A3FA"/>
			</linearGradient>
			<path style="fill:url(#SVGID_00000142884957835209449220000007936701504685288382_);" d="M181.6,58.06
				c-0.02,0.02-0.03,0.04-0.05,0.05c-0.64,0.86-0.95,1.93-1.54,2.81c-0.69,1.04-1.8,1.79-3.02,2.07c-1.13,0.25-2.34,0.12-3.37,0.63
				c-0.52,0.27-0.95,0.69-1.26,1.18c-0.52-1.69-0.83-3.71-0.83-5.88c0-0.45,0.01-0.89,0.05-1.33c0.57-0.26,1.21-0.39,1.83-0.47
				c0.94-0.13,1.89-0.18,2.77-0.52c0.83-0.32,1.56-0.89,2.06-1.63c0.69-0.99,0.96-2.23,1.51-3.31c0.09-0.17,0.19-0.33,0.3-0.5
				C180.93,52.94,181.5,55.35,181.6,58.06z"/>
			
				<linearGradient id="SVGID_00000085946808739906919720000016520549511926866617_" gradientUnits="userSpaceOnUse" x1="181.6196" y1="63.8389" x2="172.3599" y2="63.8389">
				<stop  offset="0" style="stop-color:#8AEBD6"/>
				<stop  offset="0.4615" style="stop-color:#89E9D7"/>
				<stop  offset="0.6276" style="stop-color:#84E2DA"/>
				<stop  offset="0.7461" style="stop-color:#7DD7DE"/>
				<stop  offset="0.8419" style="stop-color:#72C6E5"/>
				<stop  offset="0.9229" style="stop-color:#64B0EE"/>
				<stop  offset="0.9944" style="stop-color:#5395F9"/>
				<stop  offset="1" style="stop-color:#5193FA"/>
			</linearGradient>
			<path style="fill:url(#SVGID_00000085946808739906919720000016520549511926866617_);" d="M181.62,58.93
				c0,5.5-1.96,10.03-4.48,10.62c-0.18,0.05-0.38,0.07-0.57,0.07c-1.76,0-3.31-1.91-4.21-4.81c0.32-0.5,0.74-0.91,1.26-1.18
				c1.03-0.51,2.25-0.38,3.37-0.63c1.22-0.28,2.33-1.04,3.02-2.07c0.6-0.88,0.9-1.96,1.54-2.81c0.02-0.02,0.03-0.04,0.05-0.05
				C181.61,58.34,181.62,58.63,181.62,58.93z"/>
			<path class="st9" d="M260.31,56.31h15.72c-1.64,0.66-3.04,1.41-3.67,2c-0.5,0.46-0.28,1.3,0.33,2.37h-12.39V56.31z"/>
			<path class="st9" d="M295.16,58.95v1.74h-8.52c-0.82-1.89-1.43-3.49-1.64-4.37h10.16V58.95z"/>
			
				<linearGradient id="SVGID_00000013883523447536624060000015528824444923986876_" gradientUnits="userSpaceOnUse" x1="229.5139" y1="58.4653" x2="260.3134" y2="58.4653">
				<stop  offset="0" style="stop-color:#31D1D6"/>
				<stop  offset="0.3733" style="stop-color:#32CED8"/>
				<stop  offset="0.6175" style="stop-color:#36C6DF"/>
				<stop  offset="0.824" style="stop-color:#3CB7EB"/>
				<stop  offset="1" style="stop-color:#45A3FA"/>
			</linearGradient>
			<polygon style="fill:url(#SVGID_00000013883523447536624060000015528824444923986876_);" points="260.31,60.69 260.31,61.65 
				229.51,61.65 229.51,55.28 260.31,55.28 260.31,56.31 			"/>
			
				<linearGradient id="SVGID_00000005958767277429918270000017683242128414053558_" gradientUnits="userSpaceOnUse" x1="216.0428" y1="68.0998" x2="230.7311" y2="68.0998">
				<stop  offset="0" style="stop-color:#F7BE86"/>
				<stop  offset="0.3293" style="stop-color:#F7BC83"/>
				<stop  offset="0.5448" style="stop-color:#F7B67B"/>
				<stop  offset="0.7276" style="stop-color:#F7AC6C"/>
				<stop  offset="0.8912" style="stop-color:#F79E57"/>
				<stop  offset="1" style="stop-color:#F79244"/>
			</linearGradient>
			<path style="fill:url(#SVGID_00000005958767277429918270000017683242128414053558_);" d="M230.73,72.54l-6.78,5.16
				c0,0-8.23-8.63-7.9-13.01l4.39-0.56c-0.11-1.51-0.2-4.69,0.96-5.36c1.54-0.89,3.04,0.57,5.19,2.43c0.44,0.39,0.88,1.1,1.3,1.99
				C229.49,66.58,230.73,72.54,230.73,72.54z"/>
			<path class="st17" d="M185.11,48.37c-0.45-0.99-1.92-0.14-1.47,0.84c2.79,6.1,2.43,12.81-0.91,18.62
				c-0.54,0.94,0.92,1.79,1.46,0.85C187.84,62.33,188.14,55.01,185.11,48.37z"/>
		</g>
		<g>
			
				<linearGradient id="SVGID_00000131332548246979265340000008107913908085734583_" gradientUnits="userSpaceOnUse" x1="302.7981" y1="79.3268" x2="302.3118" y2="96.9946">
				<stop  offset="0" style="stop-color:#7B6ED6"/>
				<stop  offset="0.4804" style="stop-color:#796DD5"/>
				<stop  offset="0.6535" style="stop-color:#7268D0"/>
				<stop  offset="0.7768" style="stop-color:#6760C9"/>
				<stop  offset="0.8765" style="stop-color:#5655BE"/>
				<stop  offset="0.961" style="stop-color:#4047B0"/>
				<stop  offset="1" style="stop-color:#333EA8"/>
			</linearGradient>
			<polygon style="fill:url(#SVGID_00000131332548246979265340000008107913908085734583_);" points="305.86,79.35 305.86,84.58 
				299.61,78.67 			"/>
			
				<linearGradient id="SVGID_00000096774018188472428110000001933672226629612471_" gradientUnits="userSpaceOnUse" x1="314.7052" y1="79.5593" x2="313.4085" y2="120.568">
				<stop  offset="0" style="stop-color:#7B6ED6"/>
				<stop  offset="0.4804" style="stop-color:#796DD5"/>
				<stop  offset="0.6535" style="stop-color:#7268D0"/>
				<stop  offset="0.7768" style="stop-color:#6760C9"/>
				<stop  offset="0.8765" style="stop-color:#5655BE"/>
				<stop  offset="0.961" style="stop-color:#4047B0"/>
				<stop  offset="1" style="stop-color:#333EA8"/>
			</linearGradient>
			<path style="fill:url(#SVGID_00000096774018188472428110000001933672226629612471_);" d="M305.86,84.58l6.3,5.95l6.01,5.68
				c0,0,13.78-9.65,19.12-9.73c0.38-0.01,0.74,0.02,1.09,0.07c4.72,0.67,7.6,6.12,6.77,11.35c-0.89,5.64-0.73,11.87-6.16,12.88
				c-5.43,1.02-29.34,6.82-29.34,6.82L283.49,82.1l3.08-2.15l6.87-4.81l1.39-0.97l3.02,2.85l1.75,1.65L305.86,84.58z"/>
			
				<linearGradient id="SVGID_00000054962038489988784690000003731205499543748021_" gradientUnits="userSpaceOnUse" x1="325.5164" y1="79.952" x2="325.0302" y2="97.6198">
				<stop  offset="0" style="stop-color:#7B6ED6"/>
				<stop  offset="0.4804" style="stop-color:#796DD5"/>
				<stop  offset="0.6535" style="stop-color:#7268D0"/>
				<stop  offset="0.7768" style="stop-color:#6760C9"/>
				<stop  offset="0.8765" style="stop-color:#5655BE"/>
				<stop  offset="0.961" style="stop-color:#4047B0"/>
				<stop  offset="1" style="stop-color:#333EA8"/>
			</linearGradient>
			<path style="fill:url(#SVGID_00000054962038489988784690000003731205499543748021_);" d="M322.76,80.44l15.63,6.11
				c-0.35-0.05-0.71-0.08-1.09-0.07c-5.35,0.08-19.12,9.73-19.12,9.73l-6.01-5.68L322.76,80.44z"/>
			
				<linearGradient id="SVGID_00000070113619887573729260000016181505949371973038_" gradientUnits="userSpaceOnUse" x1="221.0026" y1="117.196" x2="339.0072" y2="117.196">
				<stop  offset="0" style="stop-color:#7B6ED6"/>
				<stop  offset="0.4804" style="stop-color:#796DD5"/>
				<stop  offset="0.6535" style="stop-color:#7268D0"/>
				<stop  offset="0.7768" style="stop-color:#6760C9"/>
				<stop  offset="0.8765" style="stop-color:#5655BE"/>
				<stop  offset="0.961" style="stop-color:#4047B0"/>
				<stop  offset="1" style="stop-color:#333EA8"/>
			</linearGradient>
			<path style="fill:url(#SVGID_00000070113619887573729260000016181505949371973038_);" d="M339.01,110.79l-9.08,24.72l-1.22,24.07
				c0,0-1.06,0.19-2.91,0.45c-8.66,1.24-34.6,4.19-50.82-1.91l6.32-29.91l-2.92-23.59l-35.25,3.9L221,79.95l2.95-2.25l6.78-5.16
				l20.91,20.42l32.72-14.3c1.19,0.86,2.22,1.28,2.22,1.28l-3.08,2.15l26.17,35.51C309.67,117.61,333.58,111.81,339.01,110.79z"/>
			
				<linearGradient id="SVGID_00000051364626662452928590000017590071683871804090_" gradientUnits="userSpaceOnUse" x1="272.0941" y1="67.3776" x2="293.4481" y2="67.3776">
				<stop  offset="0" style="stop-color:#F7BE86"/>
				<stop  offset="0.3293" style="stop-color:#F7BC83"/>
				<stop  offset="0.5448" style="stop-color:#F7B67B"/>
				<stop  offset="0.7276" style="stop-color:#F7AC6C"/>
				<stop  offset="0.8912" style="stop-color:#F79E57"/>
				<stop  offset="1" style="stop-color:#F79244"/>
			</linearGradient>
			<path style="fill:url(#SVGID_00000051364626662452928590000017590071683871804090_);" d="M293.45,75.14l-6.87,4.81
				c0,0-1.03-0.42-2.22-1.28c-1.55-1.11-3.38-2.94-3.61-5.52c-0.3-3.46-6.14-9.1-8.05-12.46c-0.61-1.07-0.83-1.91-0.33-2.37
				c0.63-0.6,2.03-1.34,3.67-2c3.63-1.44,8.48-2.43,8.92-0.18c0.01,0.05,0.03,0.12,0.05,0.18c0.21,0.88,0.82,2.48,1.64,4.37
				C289.13,66.49,293.45,75.14,293.45,75.14z"/>
			
				<linearGradient id="SVGID_00000057127351008579853000000016384027848253743769_" gradientUnits="userSpaceOnUse" x1="283.4942" y1="108.8075" x2="339.0072" y2="108.8075">
				<stop  offset="0" style="stop-color:#3C0887"/>
				<stop  offset="0.3227" style="stop-color:#3F0987"/>
				<stop  offset="0.5338" style="stop-color:#470E87"/>
				<stop  offset="0.7129" style="stop-color:#561588"/>
				<stop  offset="0.8732" style="stop-color:#6B1F89"/>
				<stop  offset="1" style="stop-color:#822A8A"/>
			</linearGradient>
			<path style="opacity:0.38;fill:url(#SVGID_00000057127351008579853000000016384027848253743769_);" d="M329.93,135.51
				c-40.05-8.5-46.43-53.41-46.43-53.41l26.18,35.53l29.34-6.84L329.93,135.51z"/>
		</g>
		<g>
			
				<linearGradient id="SVGID_00000050650178665152187280000015548401638211724418_" gradientUnits="userSpaceOnUse" x1="296.6399" y1="71.931" x2="324.6991" y2="71.931">
				<stop  offset="0" style="stop-color:#F7BE86"/>
				<stop  offset="0.3293" style="stop-color:#F7BC83"/>
				<stop  offset="0.5448" style="stop-color:#F7B67B"/>
				<stop  offset="0.7276" style="stop-color:#F7AC6C"/>
				<stop  offset="0.8912" style="stop-color:#F79E57"/>
				<stop  offset="1" style="stop-color:#F79244"/>
			</linearGradient>
			<path style="fill:url(#SVGID_00000050650178665152187280000015548401638211724418_);" d="M322.53,58.61
				c0.85-0.23,1.7-0.06,2.05,1.29c0.79,3.09-2.68,6.81-2.68,6.81l0.86,13.73l-10.59,10.09l4.15-11.87l-10.45,0.69l-6.26-0.69
				l-1.75-1.65c0,0-1.22-11.39-1.22-18.07c0-1.54,0.06-2.83,0.23-3.67l0.05-0.32c7.32,1.24,17.48-1.62,17.48-1.62
				s1.42,13.87,3.37,14.11c1.95,0.23,2.55-7.54,2.55-7.54S321.43,58.91,322.53,58.61z"/>
			<path class="st9" d="M322.62,48.53l-0.08,10.08c-1.1,0.3-2.21,1.29-2.21,1.29s-0.6,7.77-2.55,7.54
				c-1.95-0.24-3.37-14.11-3.37-14.11s-10.16,2.86-17.48,1.62v-0.01c-2.3-0.38-4.31-1.17-5.64-2.58c-5.6-5.9-3.65-9.24,4.37-7.42
				C303.67,46.77,320.31,37.11,322.62,48.53z"/>
			<polygon class="st25" points="316.31,78.67 312.17,90.53 305.86,84.58 305.86,79.35 			"/>
			<path class="st9" d="M296.22,56.78c1.61-0.81,3.29-0.9,4.98-0.29c1.03,0.37,0.25,1.9-0.77,1.53c-1.07-0.38-2.27-0.31-3.28,0.2
				C296.18,58.7,295.24,57.28,296.22,56.78z"/>
			
				<ellipse transform="matrix(0.9986 -0.0522 0.0522 0.9986 -2.7514 16.3631)" class="st9" cx="311.77" cy="60.84" rx="1.23" ry="1.82"/>
			<path class="st9" d="M313.92,56.37c-1.69-0.64-3.36-0.56-4.99,0.23c-0.99,0.48-0.06,1.91,0.92,1.44
				c1.02-0.49,2.23-0.54,3.29-0.14C314.16,58.28,314.95,56.76,313.92,56.37z"/>
			<path class="st25" d="M302.05,66.48c0.55-2.58,1.88-5.21,2.78-7.7c0.19-0.52,0.95-0.13,0.76,0.38c-0.57,1.57-1.14,3.13-1.71,4.7
				c-0.2,0.54-0.68,1.44-0.73,2.01c-0.19,1.95,0.71,1.8,1.72,2.27c0.5,0.23,0.11,1-0.38,0.76
				C303.25,68.33,301.68,68.25,302.05,66.48z"/>
			<path class="st9" d="M301.11,61.05c-0.8-0.64-1.71-1.07-2.73-1.2c-0.63-0.08-0.89,0.89-0.25,0.97c0.52,0.07,1,0.21,1.46,0.43
				c-0.53,0.17-1.07,0.35-1.6,0.52c-0.61,0.2-0.35,1.17,0.26,0.97c0.88-0.29,1.76-0.57,2.64-0.86
				C301.2,61.78,301.42,61.3,301.11,61.05z"/>
			<ellipse class="st26" cx="305.24" cy="74.1" rx="2.22" ry="3.21"/>
		</g>
	</g>
	<g>
		
			<linearGradient id="SVGID_00000025427584924796451310000017458687814156628115_" gradientUnits="userSpaceOnUse" x1="406.5014" y1="451.8889" x2="407.58" y2="377.4619">
			<stop  offset="0" style="stop-color:#8AEBD6"/>
			<stop  offset="0.4615" style="stop-color:#89E9D7"/>
			<stop  offset="0.6276" style="stop-color:#84E2DA"/>
			<stop  offset="0.7461" style="stop-color:#7DD7DE"/>
			<stop  offset="0.8419" style="stop-color:#72C6E5"/>
			<stop  offset="0.9229" style="stop-color:#64B0EE"/>
			<stop  offset="0.9944" style="stop-color:#5395F9"/>
			<stop  offset="1" style="stop-color:#5193FA"/>
		</linearGradient>
		<path style="opacity:0.5;fill:url(#SVGID_00000025427584924796451310000017458687814156628115_);" d="M611.75,373.45H210.49
			c0,0-21.59,14.33,10.51,16.76c32.1,2.43,82.16,4.72,80.93,15.64c-1.24,10.92-30.22,8.76-30.22,28.04
			c0,19.28,133.7,14.83,133.7,14.83s75.53,0.99,86.29-11.78c10.76-12.76-30.45-24.45-22.97-29.48c7.48-5.03,61.77,10.07,69.86-2.16
			c8.09-12.22-1.62-19.96,13.3-21.57S609.24,387.97,611.75,373.45z"/>
		
			<linearGradient id="SVGID_00000062166713908498109500000001762497337556410010_" gradientUnits="userSpaceOnUse" x1="581.4157" y1="447.1124" x2="581.4157" y2="381.5843">
			<stop  offset="0" style="stop-color:#8AEBD6"/>
			<stop  offset="0.4615" style="stop-color:#89E9D7"/>
			<stop  offset="0.6276" style="stop-color:#84E2DA"/>
			<stop  offset="0.7461" style="stop-color:#7DD7DE"/>
			<stop  offset="0.8419" style="stop-color:#72C6E5"/>
			<stop  offset="0.9229" style="stop-color:#64B0EE"/>
			<stop  offset="0.9944" style="stop-color:#5395F9"/>
			<stop  offset="1" style="stop-color:#5193FA"/>
		</linearGradient>
		
			<ellipse style="fill:url(#SVGID_00000062166713908498109500000001762497337556410010_);" cx="581.42" cy="398.84" rx="30.34" ry="8.63"/>
		
			<linearGradient id="SVGID_00000014592227327875618700000015444044687555051442_" gradientUnits="userSpaceOnUse" x1="258.4045" y1="447.1124" x2="258.4045" y2="381.5843">
			<stop  offset="0" style="stop-color:#8AEBD6"/>
			<stop  offset="0.4615" style="stop-color:#89E9D7"/>
			<stop  offset="0.6276" style="stop-color:#84E2DA"/>
			<stop  offset="0.7461" style="stop-color:#7DD7DE"/>
			<stop  offset="0.8419" style="stop-color:#72C6E5"/>
			<stop  offset="0.9229" style="stop-color:#64B0EE"/>
			<stop  offset="0.9944" style="stop-color:#5395F9"/>
			<stop  offset="1" style="stop-color:#5193FA"/>
		</linearGradient>
		
			<ellipse style="fill:url(#SVGID_00000014592227327875618700000015444044687555051442_);" cx="258.4" cy="406.3" rx="26.52" ry="6.56"/>
		<ellipse class="st30" cx="410.4" cy="431.88" rx="30.12" ry="5.8"/>
	</g>
	<g>
		<g>
			
				<linearGradient id="SVGID_00000090259838927725729100000008417271847028473738_" gradientUnits="userSpaceOnUse" x1="360.8077" y1="325.3714" x2="466.1603" y2="325.3714" gradientTransform="matrix(0.9797 0.2002 -0.2002 0.9797 63.9508 -75.1856)">
				<stop  offset="0" style="stop-color:#31D1D6"/>
				<stop  offset="0.3733" style="stop-color:#32CED8"/>
				<stop  offset="0.6175" style="stop-color:#36C6DF"/>
				<stop  offset="0.824" style="stop-color:#3CB7EB"/>
				<stop  offset="1" style="stop-color:#45A3FA"/>
			</linearGradient>
			<path style="fill:url(#SVGID_00000090259838927725729100000008417271847028473738_);" d="M450.23,296.29
				c-6.18-14.13-17.77-22.93-34.77-26.4c-1.85-0.38-3.66-0.68-5.43-0.9c-15-1.9-27.37,1.68-37.11,10.74
				c-10.9,10.12-18.94,27.89-24.14,53.31c-3.18,15.57-4.07,29.04-2.66,40.41h37.16c-0.47-6.64,0.84-17.5,3.92-32.56
				c3.33-16.29,6.63-27.29,9.9-33.01c1.9-3.32,4.05-5.51,6.45-6.57c1.73-0.77,3.6-0.95,5.59-0.54c4.76,0.98,7.5,4.85,8.22,11.61
				c0.72,6.77-0.54,18.07-3.77,33.9c-2.43,11.87-4.87,20.92-7.31,27.17h40.74c1.89-5.85,3.55-12.29,4.98-19.32
				c0.95-4.65,1.7-9.11,2.24-13.38C456.57,322.55,455.23,307.73,450.23,296.29z"/>
			
				<linearGradient id="SVGID_00000015334967589139962380000003057930651122577046_" gradientUnits="userSpaceOnUse" x1="390.7731" y1="380.5892" x2="389.6944" y2="325.5779">
				<stop  offset="0" style="stop-color:#F9E6D9"/>
				<stop  offset="0.121" style="stop-color:#FCF1EA"/>
				<stop  offset="0.2698" style="stop-color:#FEF9F6"/>
				<stop  offset="0.4751" style="stop-color:#FFFEFD"/>
				<stop  offset="1" style="stop-color:#FFFFFF"/>
			</linearGradient>
			<path style="fill:url(#SVGID_00000015334967589139962380000003057930651122577046_);" d="M439.82,294.17
				c-5.55-12.69-15.48-21.09-29.79-25.18c-1.61-0.46-3.27-0.87-4.99-1.22c-17.46-3.57-31.64-0.29-42.54,9.84
				c-10.89,10.13-18.94,27.9-24.13,53.31c-1.06,5.17-1.86,10.12-2.41,14.83c-1.21,10.35-1.2,19.59,0.04,27.7h37.11
				c-0.05-0.24-0.08-0.48-0.11-0.73c-0.78-6.47,0.48-17.79,3.78-33.95c3.33-16.29,6.63-27.29,9.91-33
				c3.27-5.72,7.28-8.09,12.04-7.11c1.95,0.4,3.56,1.28,4.82,2.65c1.85,1.98,2.97,4.96,3.4,8.95c0.72,6.77-0.54,18.07-3.77,33.9
				c-2.72,13.28-5.45,23.04-8.19,29.29h40.93c2.16-6.4,4.05-13.54,5.67-21.43C446.58,327.58,445.99,308.3,439.82,294.17z"/>
		</g>
		<g>
			<polygon class="st33" points="468.19,198.87 467.94,199.06 441.81,219.4 425.5,232.09 411.92,269.67 408.15,268.31 
				422.14,229.64 465.74,195.71 			"/>
		</g>
		
			<linearGradient id="SVGID_00000043455666137250458520000005018072566691285123_" gradientUnits="userSpaceOnUse" x1="441.81" y1="245.285" x2="484.5118" y2="245.285">
			<stop  offset="0" style="stop-color:#7B6ED6"/>
			<stop  offset="0.4804" style="stop-color:#796DD5"/>
			<stop  offset="0.6535" style="stop-color:#7268D0"/>
			<stop  offset="0.7768" style="stop-color:#6760C9"/>
			<stop  offset="0.8765" style="stop-color:#5655BE"/>
			<stop  offset="0.961" style="stop-color:#4047B0"/>
			<stop  offset="1" style="stop-color:#333EA8"/>
		</linearGradient>
		<path style="fill:url(#SVGID_00000043455666137250458520000005018072566691285123_);" d="M480.71,283.21
			c-2.97,3.53-7.02,5.95-10.99,8.3l-0.27-0.47c1.57-2.01,3.23-4.37,2.76-6.88c-0.33-1.71-1.59-3.07-2.88-4.22
			c-2.19-1.93-4.63-3.56-6.72-5.59c-2.09-2.03-3.86-4.58-4.2-7.47c-0.44-3.8,1.61-7.39,2.41-11.13c0.32-1.5,0.43-3.1-0.17-4.51
			c-1.34-3.18-5.39-3.91-8.6-5.19c-2.87-1.16-5.57-3.31-6.37-6.3c-1.16-4.34,1.93-8.78,1.51-13.25c-0.29-3.12-2.51-5.91-5.38-7.1
			l26.13-20.34c4.43,3.84,8.25,8.93,8.3,14.74c0.02,3.68-1.47,7.18-2.53,10.7c-0.42,1.42-0.78,2.9-0.52,4.35
			c0.41,2.22,2.18,3.9,3.81,5.47c3.37,3.23,6.76,7.16,6.7,11.83c-0.06,5.24-4.53,9.91-3.75,15.09c0.5,3.31,3.05,5.95,4.07,9.13
			C485.42,274.77,483.68,279.68,480.71,283.21z"/>
	</g>
</g>
<g id="DESIGNED_BY_FREEPIK">
</g>
</svg>
