<svg id="OBJECTS" xmlns="http://www.w3.org/2000/svg" xmlns:xlink="http://www.w3.org/1999/xlink" viewBox="0 0 750 500"><defs><style>.cls-1,.cls-18,.cls-19{fill:none;}.cls-2{fill:#abd0ef;}.cls-3{fill:#e3effb;}.cls-4{fill:#00c5d8;}.cls-23,.cls-5{fill:#fff;}.cls-6{fill:#f7bdb5;}.cls-7{fill:#112770;}.cls-8{fill:#2a4594;}.cls-9{fill:#f4b5b5;}.cls-10{fill:#ed8e8c;}.cls-11{fill:#e27171;}.cls-12{fill:#d9313a;}.cls-13{fill:#5883d1;}.cls-14{fill:#6ea2ed;}.cls-15{fill:#4b6ac4;}.cls-16{fill:#ea9686;}.cls-17{fill:#3c61aa;}.cls-18{stroke:#5883d1;stroke-linecap:round;}.cls-18,.cls-19{stroke-miterlimit:10;}.cls-19{stroke:#fff;stroke-width:2px;}.cls-20{clip-path:url(#clip-path);}.cls-21{fill:#f47f60;}.cls-22{fill:#ffb583;}.cls-23{fill-rule:evenodd;}</style><clipPath id="clip-path"><path class="cls-1" d="M663.09,211.62a64.17,64.17,0,0,1-128.33,0c0-35.43,9.86-108.36,45.3-108.36S663.09,176.19,663.09,211.62Z"/></clipPath></defs><rect class="cls-2" x="335.79" y="29.17" width="119.13" height="156.17"/><rect class="cls-3" x="343.55" y="21.34" width="119.13" height="156.17"/><rect class="cls-2" x="359.93" y="79.08" width="86.37" height="6.41"/><rect class="cls-2" x="359.93" y="92.13" width="86.37" height="6.41"/><rect class="cls-2" x="405.73" y="66.02" width="40.58" height="6.41"/><rect class="cls-2" x="405.73" y="52.97" width="40.58" height="6.41"/><rect class="cls-2" x="405.73" y="39.92" width="40.58" height="6.41"/><rect class="cls-2" x="359.93" y="104.92" width="43.18" height="6.41"/><rect class="cls-2" x="359.93" y="127" width="86.37" height="6.41"/><rect class="cls-2" x="359.93" y="140.05" width="86.37" height="6.41"/><rect class="cls-2" x="359.93" y="152.84" width="43.18" height="6.41"/><rect class="cls-2" x="359.93" y="39.92" width="32.2" height="32.2"/><rect class="cls-3" x="55.59" y="87.31" width="256.67" height="160.97"/><rect class="cls-2" x="79.37" y="147.29" width="207.03" height="6.41"/><rect class="cls-2" x="79.37" y="160.34" width="207.03" height="6.41"/><rect class="cls-2" x="79.37" y="134.24" width="207.03" height="6.41"/><rect class="cls-2" x="79.37" y="121.19" width="207.03" height="6.41"/><rect class="cls-2" x="79.37" y="108.13" width="207.03" height="6.41"/><rect class="cls-2" x="79.37" y="173.14" width="103.52" height="6.41"/><rect class="cls-2" x="79.37" y="195.21" width="207.03" height="6.41"/><rect class="cls-2" x="79.37" y="208.26" width="207.03" height="6.41"/><rect class="cls-2" x="79.37" y="221.06" width="103.52" height="6.41"/><rect class="cls-4" x="55.59" y="67.67" width="256.67" height="19.39"/><rect class="cls-5" x="64.71" y="74.39" width="5.25" height="5.25" rx="1.28"/><rect class="cls-5" x="76.61" y="74.39" width="5.25" height="5.25" rx="1.28"/><rect class="cls-5" x="88.51" y="74.39" width="5.25" height="5.25" rx="1.28"/><polygon class="cls-6" points="330.14 343.3 359.9 381.54 354.77 401.96 334.76 414.88 314.24 396.99 311.67 352.74 330.14 343.3"/><path class="cls-7" d="M245.31,135.66s16.07,21,0,32.67-21.23-11.46-21.23-11.46l6.35-13.51Z"/><path class="cls-7" d="M250.28,233.08s37.81-2.12,61.22,43.69c23.52,46,31.13,76.75,31.13,76.75s-16.76,8.14-30.79,6.46S252.29,296.49,250.28,233.08Z"/><path class="cls-5" d="M339,341.38c-3.6,1.62-17.77,7.52-29.91,6.07-11.39-1.37-43.54-42.38-56.31-91.69,10,54.71,46.73,102.75,59.07,104.22,14,1.68,30.79-6.46,30.79-6.46S341.56,349.2,339,341.38Z"/><path class="cls-8" d="M311.1,299.4c-32.34-75.5-89.25-74-89.25-74H187s-56.65-4.23-89,71.28C80.3,338.06,64.43,440,60.38,475.89H345S343.43,374.91,311.1,299.4Z"/><path class="cls-7" d="M303.74,398.91l-2.33-6.09,18.14-4.3,2.51-2.09-46.82-14.6s-16.59-2.87-19.67-4.33-13.68-5.21-13.68-5.21l-6,2.9L247,381.28l-18.11,17.91s-36.45-8.85-41.24-17.91-17.24-89.42-17.24-89.42l-39.39-26s-8.58-3.59-15.71-5.63c-9.07,9.95-10.24,20-17.29,36.45C80.3,338.06,64.43,440,60.38,475.89H200.87c34.15-16.62,60-57.89,69-56.39,9.24,1.54,23,2.18,23,2.18Z"/><path class="cls-5" d="M171.68,240.35a30.6,30.6,0,0,1,3.49-14.21,76,76,0,0,1,10.28-.78h38.38a50.45,50.45,0,0,1,5.89.35,30.87,30.87,0,1,1-58,14.64Z"/><path class="cls-9" d="M191.16,191.32C198.07,203.38,212,215,224.08,215h0v25.54a21.1,21.1,0,0,1-21.1,21.1h0a21.09,21.09,0,0,1-20.7-25.17Z"/><path class="cls-10" d="M224.08,218.69h0v14.38c-32-9.78-32.92-41.76-32.92-41.76C198.87,207.17,212,218.67,224.08,218.69Z"/><path class="cls-9" d="M244.65,138.79s9.78,40.72-2.72,65.76c-12.36,24.76-38.53,12.34-52.28-11.57,0,0-10.25-.24-13-10.35s3.09-14.27,9.28-12.17L184,143Z"/><path class="cls-11" d="M185.9,174.89s-2.65-1.57-4.65,0c-3.21,2.55-.64,13.75,6.72,11.88C188,186.78,180.88,182.23,185.9,174.89Z"/><path class="cls-7" d="M245.27,161.66c-4.12.13-7.43,0-11.18,1.64,1.94-4.05,8-4.39,11.18-1.64Z"/><path class="cls-11" d="M227.13,167.14s-1,6.7,5.64,12.69c2.57,2.32,2.47,3.89.86,5-3.16,2.08-7.37,0-8.18-3.73A22.54,22.54,0,0,1,227.13,167.14Z"/><ellipse class="cls-7" cx="239.88" cy="171.04" rx="4.02" ry="5.54" transform="translate(-11.22 16.94) rotate(-3.95)"/><path class="cls-7" d="M208.39,164.21c2.76-3.16,8.83-3.66,11.3.08-3.93-1.07-7.2-.52-11.3-.08Z"/><ellipse class="cls-7" cx="215.02" cy="172.76" rx="4.02" ry="5.54" transform="translate(-11.4 15.23) rotate(-3.95)"/><polygon class="cls-9" points="244.4 167.18 239.88 171.04 245.09 170.68 244.4 167.18"/><polygon class="cls-9" points="219.57 168.9 215.05 172.75 220.25 172.39 219.57 168.9"/><path class="cls-12" d="M112,267.65c32.9,14.12,32,45,32,45s-6.33-19.33-23.6-32S108.51,266.16,112,267.65Z"/><path class="cls-13" d="M327.66,464.05H566.38A11.17,11.17,0,0,0,577,456.21l41.25-132.45a11.16,11.16,0,0,0-10.66-14.48H368.91a11.16,11.16,0,0,0-10.65,7.84L317,449.57A11.16,11.16,0,0,0,327.66,464.05Z"/><path class="cls-14" d="M517.42,326.16h85.89A4.42,4.42,0,0,1,607.5,332l-19.77,59s6.26-37.36-.53-50.41S538.23,332.61,517.42,326.16Z"/><path class="cls-15" d="M317,449.57l38-122,12.32-6s-35.23,147.9,209.12,136.13a11.16,11.16,0,0,1-10,6.33H327.66a11.08,11.08,0,0,1-8.18-3.57,11.52,11.52,0,0,1-1.5-2,11.13,11.13,0,0,1-1.47-6.19A11.69,11.69,0,0,1,317,449.57Z"/><path class="cls-14" d="M317,449.57l41.25-132.45a11.16,11.16,0,0,1,10.65-7.84H607.63a11.16,11.16,0,0,1,10.71,8,11,11,0,0,0-3.17-.47H376.45a11.16,11.16,0,0,0-10.66,7.84L324.54,457.1a11.1,11.1,0,0,0-.05,6.48A11.16,11.16,0,0,1,317,449.57Z"/><rect class="cls-13" x="183.43" y="464.05" width="272.36" height="11.84" rx="2.9" transform="translate(639.21 939.94) rotate(-180)"/><rect class="cls-14" x="292.44" y="464.05" width="272.36" height="11.84" rx="2.9" transform="translate(857.23 939.94) rotate(-180)"/><path class="cls-13" d="M317.84,381.94l-75.65-24.8a5.46,5.46,0,0,0-6.89,3.46h0a5.47,5.47,0,0,0,3.87,7l77.3,19.08a2.49,2.49,0,0,0,3-1.89h0A2.48,2.48,0,0,0,317.84,381.94Z"/><path class="cls-6" d="M285.21,376.73a57.72,57.72,0,0,0-16.1-1.4l8.92-9.42c12.09-1.67,21-3.29,20.2-7.22-1-4.67-24-7.65-34.5-.18-14.16,10.1-34.82,40.68-34.82,40.68l14,25.2s22.47-13.5,26-13.93,11.61,4.7,18.55,6,5.52-5.41,5.52-5.41c6.63-.91,6.05-8.1,6.05-8.1a8.18,8.18,0,0,0,4.73-4C305.33,395.72,299.15,379.86,285.21,376.73Z"/><path class="cls-16" d="M286.87,362.79c7.2.37,11.28-3.08,11.32-3.12-.78,3.23-9.14,4.72-20.16,6.24l-8.92,9.42c4.27-6.21,7.72-11.85,7.72-11.85S279.64,362.42,286.87,362.79Z"/><path class="cls-6" d="M159.8,405.41s34.68-3.1,69.11-6.22l14,25.2s-54.76,32.94-105.5,23.91c-40.56-10.21-37.78-111.74-34.58-151.21,2.47-30.51,16.57-41.94,28.79-41.47,32.18,1.26,30.05,103.4,28.17,149.79"/><path class="cls-16" d="M106.8,402a251.64,251.64,0,0,1-4.8-36.77l33.52.38,16.92,6.5,8.08,10.37h0S142.75,399.67,106.8,402Z"/><path class="cls-16" d="M303.34,399.58a3.45,3.45,0,0,1-4.06.52c-2-1.21-10.45-12.93-16.65-13.91-4.48-.7-13.15-1.27-19.58,1.57,2.33-.65,18.13-1.22,21.74,1.38C289,392.2,299,403,299,403A8.42,8.42,0,0,0,303.34,399.58Z"/><path class="cls-16" d="M295,407.82c-3.41.77-14.25-8.68-16-9.87s-14.39-1.18-15.8-.48,12.32,1.3,14.66,1.65,11.22,10.17,15.09,11.93c6.63-.91,6.05-8.1,6.05-8.1S298.41,407.06,295,407.82Z"/><path class="cls-8" d="M172,380.42s-41.3,9.63-81.16,5.21c0,0-8.53-135.89,48.54-145.42C166.71,235.64,174.52,272.75,172,380.42Z"/><path class="cls-17" d="M99.55,356.87s.85-75.87,21.58-96.42S102,313.41,99.55,356.87Z"/><path class="cls-5" d="M172.16,368.64c0,3.82-.07,7.74-.16,11.78,0,0-41.3,9.63-81.16,5.21,0,0-.44-4.36-.91-11.52C127.31,377.78,165.24,370.14,172.16,368.64Z"/><line class="cls-18" x1="317.25" y1="384.34" x2="321.75" y2="385.62"/><path class="cls-14" d="M300.59,376.29l17.25,5.65a2.49,2.49,0,0,1-1.37,4.78L299,382.4Z"/><path class="cls-11" d="M234.78,195.35s-10.86,0-19.07-4.28c0,0,2.31,6.24,8.13,8.72S234.78,195.35,234.78,195.35Z"/><path class="cls-8" d="M180,170.51s-13.56-37.42,11.18-38.61c0,0,13.81-22.06,37.9-22.58,23.43-.51,15.59,29.47,15.59,29.47L184,143l1.9,27.48A28.74,28.74,0,0,0,180,170.51Z"/><path class="cls-8" d="M185.89,170.46s11.74-3.29,15.46-18.17c0,0,37.44,8.52,49.94-9.79S224.08,127,224.08,127s-11.61,2.06-12.81,2.57-13.51,3.33-13.51,3.33-18.29,6.42-17.87,7.44,2,11,2,11.81,0,2.56,0,3.59S185.89,170.46,185.89,170.46Z"/><path class="cls-7" d="M251.29,142.5c5.34-7.81,1.16-11.77-5.38-13.74.05.05,1.84,2.13,0,7.75-2.93,8.92-12.32,9.84-12.32,9.84,2.74-3.42,1.37-8.21,1.37-8.21s-3.51,8.64-14.8,9.58-22.27-4.92-22.27-4.92.51,12.57-11,12.7-9.27-14-9.26-14.07c-4,11.45,2.39,29.08,2.39,29.08a28.74,28.74,0,0,1,5.91,0s11.74-3.29,15.46-18.17C201.35,152.29,238.79,160.81,251.29,142.5Z"/><ellipse class="cls-8" cx="480.11" cy="391" rx="15.67" ry="12.69" transform="translate(-7.22 772.97) rotate(-77.25)"/><rect class="cls-8" x="335.79" y="225.04" width="96" height="48.54" rx="2.29"/><polygon class="cls-8" points="389.7 273.57 369.58 293.69 369.58 273.57 389.7 273.57"/><line class="cls-19" x1="348.61" y1="238.16" x2="418.97" y2="238.16"/><line class="cls-19" x1="348.61" y1="249.31" x2="418.97" y2="249.31"/><line class="cls-19" x1="348.61" y1="260.45" x2="387.01" y2="260.45"/><rect class="cls-4" x="394.45" y="152.78" width="116.69" height="58.99" rx="2.79"/><polygon class="cls-4" points="445.61 211.78 470.06 236.23 470.06 211.78 445.61 211.78"/><line class="cls-19" x1="495.55" y1="168.18" x2="410.03" y2="168.18"/><line class="cls-19" x1="495.55" y1="181.73" x2="410.03" y2="181.73"/><line class="cls-19" x1="495.55" y1="181.73" x2="410.03" y2="181.73"/><line class="cls-19" x1="495.55" y1="195.28" x2="410.03" y2="195.28"/><circle class="cls-13" cx="598.92" cy="211.62" r="64.16"/><path class="cls-8" d="M558.36,142.58s-13.43,7.77-7.77,34.63-13.35,26.44-19.46,18.51-15.48,15.9,6.53,35.33c16.59,14.65,53.44,17.36,53.44,17.36l27.81-7.24s6.33-5.43,9.27-10.63,3.39-6.11,4.75-10.18,16.29-65.38-16.51-88.23S556.85,123.39,558.36,142.58Z"/><path class="cls-7" d="M605.85,244.57c1.16-13.95,1.92-37.93,0-42.09-2.63-5.81-14.39-23.41-14.39-23.41l-34-29s-7.12,7.3-2.26,28.33,4.53,33.12-2.37,39.46c-5.84,5.36-19.53,6.14-27.13-3.6a41.65,41.65,0,0,0,12,16.83c16.59,14.65,53.44,17.36,53.44,17.36Z"/><polygon class="cls-4" points="610.65 259.85 549.46 293.57 563.2 259.85 610.65 259.85"/><g class="cls-20"><path class="cls-4" d="M708.73,282.21c-31.42-66.58-93.67-65.29-93.67-65.29H581.23s-55.31-1.29-86.74,65.29-33,155.61-33,155.61H699.08a39.34,39.34,0,0,0,39.07-44.17C734.22,362,726,318.73,708.73,282.21Z"/><path class="cls-5" d="M627.2,230.13a27.12,27.12,0,0,0-3.07-12.53,68.07,68.07,0,0,0-9.07-.68H581.23a42.82,42.82,0,0,0-5.2.31,27.21,27.21,0,1,0,51.17,12.9Z"/><path class="cls-9" d="M610,186.9c-6.09,10.64-18.35,20.88-29,20.9h0v22.52a18.61,18.61,0,0,0,18.61,18.61h0a18.61,18.61,0,0,0,18.25-22.2Z"/><path class="cls-10" d="M581,211h0v12.69c28.18-8.63,29-36.83,29-36.83C603.23,200.88,591.68,211,581,211Z"/><path class="cls-9" d="M557.46,150c-1.08,11.78-1.72,34.93,7.28,50.23,12.38,21,34.65,8.51,45.29-13.36,0,0,9-.83,10.84-9.9s-3.58-12.36-8.9-10.13V142.58S557.87,145.44,557.46,150Z"/><path class="cls-11" d="M572.55,193.47s9.58,0,16.82-3.77c0,0-2,5.5-7.17,7.69S572.55,193.47,572.55,193.47Z"/><path class="cls-21" d="M611.13,181.35c6.59,1.19,8.17-8.81,5.19-10.86-1.85-1.27-4.09.28-4.09.28s2.77,0,2.66,4.29A7.75,7.75,0,0,1,611.13,181.35Z"/><polygon class="cls-22" points="562.52 170.37 566.73 173.49 562.13 173.49 562.52 170.37"/><polygon class="cls-22" points="584.47 170.37 588.67 173.49 584.08 173.49 584.47 170.37"/></g><path class="cls-7" d="M559.93,167.58c2.81-2.15,7.55-2.44,10,.45-3.19-1.58-6.54-1.22-10-.45Z"/><path class="cls-11" d="M576.33,170.79s1.47,5.79-3.84,11.64c-2,2.25-1.83,3.63-.32,4.42,3,1.55,6.46-.68,6.85-4A19.86,19.86,0,0,0,576.33,170.79Z"/><ellipse class="cls-7" cx="565.48" cy="175.33" rx="3.55" ry="4.88" transform="translate(-5.09 17.36) rotate(-1.75)"/><path class="cls-7" d="M592.51,166.58c-3.45-.56-6.82-.71-9.91,1.07,2.23-3,7-3,9.91-1.07Z"/><ellipse class="cls-7" cx="587.45" cy="174.66" rx="3.55" ry="4.88" transform="translate(-5.06 18.03) rotate(-1.75)"/><polygon class="cls-22" points="561.18 172.35 565.48 175.33 560.88 175.47 561.18 172.35"/><polygon class="cls-22" points="583.12 171.68 587.42 174.66 582.82 174.8 583.12 171.68"/><path class="cls-8" d="M625,140.14l-5.27,9.24a55.54,55.54,0,0,0-6.2-8.31c-2.49-2.6-.34-4.07-6.9-6.45s-10-5.31-15.48-4.18-15.74,3.73-15.74,3.73a22.34,22.34,0,0,0-7.05,1.7C556.5,145.82,557.46,150,557.46,150s3.13,7,26.5,7.89c12.3.48,18.7,8,22.12,15.34.17.44,7.57,20,2,40.52s-20.92,13.27-23,15.08,5.34,24.22,38.56,14.67S654.78,168.67,625,140.14Z"/><path class="cls-7" d="M584,157.92c12.3.48,18.7,8,22.12,15.34.17.44,7.57,20,2,40.52-3.25,12.05-9.82,14.56-15.15,14.91,22.06-.71,28.84-21.25,24.2-45.52-4.68-24.43-17.16-33.67-34.33-30.5S557.46,150,557.46,150,560.59,157,584,157.92Z"/><rect class="cls-13" x="613.89" y="378.39" width="72.38" height="9.18" transform="translate(1300.16 765.96) rotate(-180)"/><rect class="cls-14" x="673.75" y="378.39" width="4.37" height="9.18"/><rect class="cls-15" x="613.89" y="378.39" width="15.11" height="9.18"/><polygon class="cls-8" points="650.08 387.57 681.38 387.57 674.39 474.95 650.08 474.95 625.76 474.95 618.78 387.57 650.08 387.57"/><polygon class="cls-15" points="673.75 387.57 666.76 474.95 671.13 474.95 678.11 387.57 673.75 387.57"/><polygon class="cls-7" points="629 387.57 635.99 474.95 625.76 474.95 618.78 387.57 629 387.57"/><polygon class="cls-14" points="681.38 378.39 681.38 372.46 674.59 372.46 666.12 378.39 681.38 378.39"/><circle class="cls-15" cx="650.08" cy="427.32" r="13.35"/><circle class="cls-4" cx="506.71" cy="92.13" r="28.05"/><polygon class="cls-23" points="498.89 92.13 498.89 80.41 509.04 86.27 519.19 92.13 509.04 97.99 498.89 103.84 498.89 92.13"/><rect class="cls-7" x="15.76" y="474.94" width="715.89" height="10.09" rx="2.47"/><path class="cls-17" d="M322.06,350.6s-24.5-93.33-68.33-107.26S284.56,253.89,322.06,350.6Z"/><path class="cls-17" d="M196.14,131.22S208.71,114.36,225,114,228.38,116.47,196.14,131.22Z"/><path class="cls-17" d="M620.62,140.05s-17.36-19.23-41.49-14.7S599.59,125.87,620.62,140.05Z"/></svg>